<svg width="405" height="370" viewBox="0 0 405 370" fill="none" xmlns="http://www.w3.org/2000/svg">
<path d="M239.968 20.7583C361.221 -57.9471 471.572 101.319 356.511 260.887C306.065 330.847 234.764 384.113 195.182 366.66C111.384 329.749 43.7305 251.044 15.8484 184.718C-43.5624 43.4726 74.0817 -45.9463 202.362 45.0248L239.968 20.7583Z" fill="#114B07"/>
<path d="M248.022 74.5913C203.084 65.5056 152.752 78.8692 127.681 109.534C120.539 116.764 112.638 126.191 107.434 136.223C85.4776 174.8 98.6589 220.115 104.395 236.166C128.706 304.385 227.395 329.371 286.54 279.475C317.575 254.338 342.912 221.591 334.935 163.897C327.679 111.426 290.225 83.1092 248.022 74.5535V74.5913ZM259.797 85.5699C260.633 85.7592 260.443 87.1599 259.873 88.5228C259 90.6807 259.759 93.4064 262.191 96.8893C263.216 98.3279 263.976 99.7286 263.938 100.031C263.9 100.334 262.38 100.107 260.557 99.5771C256.872 98.4793 253.036 99.1986 251.554 101.243C250.415 102.795 247.604 102.606 240.5 100.448C236.056 99.0471 220.102 93.785 216.189 97.6086C215.809 97.9871 215.239 98.2521 214.897 98.1764C213.986 97.9871 209.883 101.129 208.022 103.401C205.629 106.316 205.287 110.177 206.882 116.348C208.896 122.822 209.048 128.652 225.686 127.289C227.927 126.683 240.804 123.049 241.678 124.487C242.21 125.85 236.93 129.674 232.485 131.112C229.256 132.172 224.242 131.68 221.697 130.128C218.924 129.939 215.429 129.712 212.694 129.484C211.897 129.863 209.883 130.052 208.098 129.939C206.199 129.825 203.843 129.863 202.818 130.052C197.12 131.112 193.967 131.983 192.295 133.005C187.547 135.012 181.697 137.321 183.559 144.135C183.825 144.968 185.42 147.58 187.129 149.927L190.244 154.205C188.231 154.659 187.319 157.385 185.724 157.953C185.192 158.142 183.9 159.354 182.837 160.641C181.127 162.761 180.938 163.405 180.9 166.698C180.862 170.257 182.191 173.815 185.04 177.942C189.864 184.87 199.019 188.39 206.692 186.308C208.782 185.74 211.251 184.529 212.162 183.62C213.074 182.712 214.328 181.917 214.973 181.841C215.657 181.765 216.265 181.084 216.455 180.175C216.607 179.342 217.063 178.699 217.405 178.775C217.746 178.85 218.696 178.207 219.494 177.374C221.203 175.557 222.381 175.519 225.61 177.071C227.281 177.904 228.535 179.229 229.75 181.5C231.991 185.362 235.22 187.557 237.917 190.473C241.298 194.107 241.374 194.296 239.931 194.902C236.474 196.34 238.867 200.921 243.957 202.625C248.364 204.101 250.149 205.578 253.606 210.613C257.936 216.897 258.316 217.995 259.683 227.005C261.051 236.053 260.709 242.186 258.05 256.268C256.113 266.604 255.315 269.14 250.643 280.308C248.629 285.078 246.996 289.129 246.958 289.28C246.92 289.431 246.654 289.507 246.35 289.431C243.311 289.734 239.627 292.876 235.144 292.498C235.068 292.839 234.422 292.536 233.663 291.816C232.143 290.34 230.358 290.302 227.243 291.816C225.572 292.611 225.116 292.574 224.432 291.741C222.495 289.242 220.747 287.879 219.418 280.914C219.38 276.484 215.847 262.326 214.252 260.13C213.682 259.373 212.504 258.616 211.593 258.426C207.756 257.669 202.742 253.997 199.247 249.341C196.36 245.555 193.093 243.511 186.332 241.315C179.418 239.081 174.974 236.356 174.214 233.895C173.492 231.586 173.682 228.671 174.86 223.333C177.709 210.272 187.281 200.845 200.425 198.044C207.528 196.757 224.812 192.29 229.028 198.12C229.18 198.46 230.51 198.953 231.991 199.142C234.498 199.52 234.764 199.407 235.258 197.665C235.676 196.227 235.524 195.583 234.498 194.788C232.219 193.009 225.876 190.321 223.9 190.283C222.875 190.283 220.14 190.018 217.86 189.715C212.922 189.11 204.109 189.867 198.107 191.457C193.853 191.343 191.194 194.296 187.623 195.318C186.863 195.167 179.228 200.808 177.215 203.003C172.884 207.773 170.491 211.9 168.326 218.449C164.413 230.298 165.857 236.583 173.72 242.488C176.911 244.873 178.62 245.668 183.483 246.956C191.422 247.031 199.513 262.439 203.16 262.098C205.097 262.931 206.768 264.029 206.882 264.521C206.996 265.014 207.414 265.506 207.832 265.581C209.275 269.594 210.985 276.674 211.213 280.384C211.365 284.131 214.366 293.104 215.505 293.331C216.493 293.52 218.392 296.889 217.746 297.306C192.561 302.227 168.402 290.378 150.244 282.314C146.522 279.664 141.66 273.834 138.583 270.806C138.583 270.806 137.899 268.951 137.709 265.543C136.949 259.524 137.177 253.202 136.379 247.486C136.303 242.526 135.506 240.823 132.733 236.772C126.579 227.989 126.769 228.406 127.263 225.49C127.832 221.932 127.795 219.471 127.073 217.124C126.769 216.102 126.617 214.777 126.731 214.209C126.845 213.641 126.731 213.035 126.503 212.846C126.275 212.657 124.756 210.461 123.122 207.925L120.197 203.306L123.806 198.99C125.781 196.605 127.87 193.388 128.44 191.798C129.504 188.769 129.656 183.317 128.706 180.857C125.287 174.345 117.538 173.02 111.08 174.724C109.181 175.254 106.712 176.314 105.61 176.995C103.217 178.51 102.875 178.51 103.179 177.071C103.293 176.465 103.673 173.626 104.015 170.787L104.623 165.6L108.345 163.405C111.802 161.36 115.525 160.073 122.21 158.521C125.211 157.84 128.554 157.688 131.137 157.31C135.734 156.628 138.697 155.076 142.191 151.404C144.015 149.473 144.243 148.981 144.015 146.861C143.825 145.044 143.977 144.4 144.623 144.211C147.509 143.264 151.536 140.614 152.828 138.797C153.663 137.624 154.841 135.201 155.449 133.384C156.474 130.355 156.474 129.939 155.145 127.932C154.385 126.721 153.473 125.699 153.131 125.623C152.79 125.547 151.878 124.449 151.118 123.162C149.409 120.285 149.941 119.49 155.829 115.969C163.54 111.389 167.946 108.209 168.174 107.035C168.288 106.391 167.984 105.294 167.49 104.65C166.275 103.022 161.223 99.5393 158.981 98.82C156.74 98.0628 156.702 98.025 157.842 97.0407C159.399 95.6778 164.224 93.5957 164.072 94.315C165.857 98.6686 173.758 96.435 176.303 95.2614C177.253 94.8071 178.354 94.4664 178.734 94.5421C179.114 94.6178 180.938 93.8228 182.761 92.7628C184.66 91.665 186.332 91.0971 186.636 91.4757C187.661 92.6114 193.169 95.0721 195.144 95.2236C199.399 95.64 207.224 94.1257 210.529 92.2707C211.555 91.7028 213.986 90.34 215.923 89.2421C217.86 88.1442 221.089 85.7592 223.141 83.9421C225.762 81.5949 227.129 79.7778 228.611 79.7399C241.298 78.9071 251.782 82.0492 259.532 85.6835L259.797 85.5699ZM274.498 92.195C274.802 92.2328 275.258 92.5735 276.018 93.1793C276.701 93.7471 277.955 94.4286 278.791 94.7314C285.21 97.0028 295.809 105.294 301.165 112.146C328.667 141.296 336.112 177.033 322.323 216.48C321.373 218.335 320.348 219.925 320.082 220.039C319.436 220.266 316.511 217.2 315.637 215.307C314.612 213.149 314.308 208.871 314.916 205.615C315.675 201.716 315.182 195.962 313.966 193.993C313.168 192.706 312.295 192.29 309.788 191.911C306.027 191.343 302.798 192.441 297.366 196.227C295.277 197.665 293.112 198.725 292.504 198.612C291.25 198.347 289.503 192.214 288.629 185.059C287.717 177.45 285.514 173.588 281.526 172.717C278.715 172.074 273.207 173.626 272.105 175.367C271.421 176.427 270.889 176.692 270.092 176.238C268.002 175.102 265.989 177.185 262.95 183.772C261.279 187.368 255.391 191.305 252.01 191.078C246.73 190.17 237.233 179.494 234.726 175.33C232.979 172.263 230.016 170.522 224.698 169.5C220.292 168.667 219.874 168.705 216.759 170.37C214.935 171.355 212.086 173.399 210.415 174.913C204.831 179.986 203.577 180.554 199.779 179.835C195.828 179.077 193.815 177.904 192.22 175.595C188.003 169.272 187.851 167.152 191.27 163.291C192.523 161.852 194.537 160.073 195.714 159.278C198.639 157.347 199.285 154.243 197.31 151.593C193.017 145.839 191.65 144.135 191.232 144.059C190.966 144.022 190.89 143.264 191.08 142.432C191.422 140.652 194.081 139.176 200.083 137.321C204.223 136.072 206.464 135.92 211.859 136.677C213.758 136.942 215.543 136.867 215.885 136.526C216.303 136.109 217.367 136.223 219.19 136.942C227.775 140.198 240.842 137.737 246.882 131.718C249.769 128.841 252.01 123.654 251.061 121.989C248.895 118.052 244.603 117.105 237.233 118.96C231.194 119.452 225.686 122.557 219.646 122.329C215.087 122.064 212.656 117.786 213.226 111.161C213.492 108.095 213.682 107.716 215.695 106.467C221.887 102.606 225.989 102.416 235.22 105.559C240.12 107.224 250.073 109.344 254.289 109.647C254.897 109.685 256.075 108.89 256.91 107.868C257.746 106.846 258.734 106.089 259.076 106.164C259.418 106.24 261.279 107.338 263.216 108.625C268.8 112.297 272.029 112.373 272.713 108.852C273.169 106.429 272.333 101.659 270.965 98.8579C270.282 97.495 269.864 96.2836 270.016 96.2078C270.168 96.1321 271.003 95.8293 271.877 95.5643C272.865 95.2614 273.549 94.5043 273.738 93.5578C273.928 92.6114 274.08 92.1193 274.498 92.1571V92.195ZM212.656 80.6863C213.834 80.9135 213.53 81.2542 210.681 82.9578C205.363 86.1378 205.249 86.1757 201.906 87.2357C196.968 88.8257 194.955 88.485 191.726 85.4942C190.206 84.0935 188.991 82.8064 189.029 82.6171C189.181 81.5571 209.01 79.9292 212.656 80.6863ZM149.561 101.47L153.511 102.379C155.677 102.871 158.26 103.779 159.171 104.385L160.881 105.521L158.374 107.262C156.968 108.209 154.841 109.382 153.625 109.836C152.41 110.291 149.751 112.032 147.775 113.66C144.774 116.121 144.053 117.067 143.635 119.187C143.179 121.497 143.445 122.216 146.218 126.153C147.927 128.576 149.257 130.847 149.181 131.188C148.877 132.664 147.016 134.898 144.509 136.753C142.457 138.305 141.128 138.759 139.152 138.646C134.29 138.343 132.961 140.312 135.506 143.87C137.329 146.407 137.291 147.202 135.164 149.019C128.288 152.577 121.717 152.161 114.537 154.319C111.27 155.303 108.459 156.098 108.345 156.06C108.231 156.022 108.345 155.379 108.687 154.659C114.233 141.864 120.349 128.235 134.442 115.174C138.621 111.048 140.672 109.117 144.926 105.483L149.599 101.47H149.561ZM278.867 180.554C279.664 182.106 280.386 185.172 280.462 187.217C280.576 191.57 282.627 198.233 284.793 201.375C286.312 203.571 287.414 204.404 289.541 205.085C294.403 206.259 298.772 204.669 302.418 202.208C304.28 200.959 305.951 199.937 306.179 199.975C306.407 200.013 306.369 202.17 306.103 204.707C305.837 207.281 305.799 210.726 305.989 212.392C306.521 216.708 310.737 222.992 314.65 225.339C316.511 226.437 316.929 227.497 316.207 229.163C315.41 231.018 315.448 232.948 316.283 233.857C317.195 234.841 317.157 235.031 315.865 236.772C303.444 253.353 281.222 278.869 260.519 284.207L256.227 286.1L257.062 283.753C259.797 278.453 259.57 277.999 261.203 272.85C261.849 270.806 262.874 267.815 263.558 266.187C268.04 251.877 267.167 238.892 267.167 225.793C267.167 224.885 266.445 221.515 265.533 218.26C263.33 210.423 257.936 202.36 253.15 199.748C249.807 197.93 249.085 197.098 251.44 197.817C252.884 198.233 256.113 197.893 258.012 197.06C258.62 196.795 259.532 196.53 260.101 196.416C261.735 196.151 267.205 191.078 268.724 188.428C269.484 187.065 270.358 185.589 270.7 185.097C271.003 184.605 271.459 183.09 271.687 181.69C271.915 180.289 272.219 179.532 272.333 180.024C272.599 181.235 276.511 181.879 277.689 180.895C278.107 180.554 278.563 180.402 278.905 180.478L278.867 180.554ZM119.437 180.63C119.855 180.743 120.235 180.857 120.577 181.046C124.3 182.787 121.945 190.851 116.209 196.075C113.36 198.877 112.334 201.603 113.778 205.313C114.119 206.145 115.031 207.698 115.791 208.758C118.564 212.505 119.248 213.717 119.627 215.383C120.045 217.238 120.045 217.389 119.627 224.393C119.286 229.655 119.779 231.207 122.704 234.16C131.631 243.094 129.048 247.902 130.074 256.458C130.416 259.411 130.643 262.174 130.568 262.628C130.492 263.083 129.846 263.31 129.162 263.158C128.478 263.007 127.946 262.666 127.984 262.401C128.174 261.417 124.642 256.268 123.92 256.533C123.54 256.685 122.856 255.89 122.438 254.83C121.375 252.18 120.919 251.233 119.551 249.038C118.412 247.183 115.753 240.331 114.651 236.393C114.347 235.258 113.664 233.781 113.17 233.176C112.106 231.813 110.321 226.248 106.902 213.565C104.281 203.95 102.192 197.249 103.217 186.838L108.155 183.847C112.714 181.084 116.589 179.986 119.399 180.667L119.437 180.63Z" fill="white"/>
</svg>
