<svg width="463" height="474" viewBox="0 0 463 474" fill="none" xmlns="http://www.w3.org/2000/svg">
<path fill-rule="evenodd" clip-rule="evenodd" d="M154.427 1.20252C152.54 1.8456 150.242 2.83658 149.309 3.40587C143.163 7.21206 141.268 17.0152 140.47 23.4258C139.885 28.0908 139.747 31.3115 140.037 33.5095C140.375 36.0819 140.296 36.9253 139.668 37.6316C137.63 39.9151 132.59 39.8508 129.917 40.225C115.296 42.2985 101.149 47.9594 88.0125 54.5152C83.2832 56.8844 78.2543 59.2871 73.9125 62.3481C72.5368 63.318 70.8764 64.2668 70.2228 64.4566C69.1218 64.7762 68.7609 65.7447 67.7349 66.2541C59.8531 70.1667 52.9228 78.2393 46.8986 84.292C42.4077 88.8041 38.1329 93.2846 37.4107 94.244C31.8647 101.612 26.304 108.919 21.4923 116.805C18.103 122.438 15.5738 128.661 12.5895 134.516C11.8034 136.058 11.521 137.695 10.8132 139.26C5.15033 151.931 2.22192 166.791 0.808809 180.507C-2.35153 210.825 3.90351 240.291 16.8801 267.481C17.4283 268.641 17.8763 269.943 17.8711 270.38C17.8555 271.671 19.552 272.251 19.5209 273.543C19.5156 273.98 20.4855 276.352 21.682 278.814C22.8733 281.276 24.7761 285.192 25.9041 287.511C26.8276 289.41 27.3041 292.664 29.2407 293.837C31.7611 295.353 40.9925 269.813 43.9732 264.845C46.8755 260.044 49.2101 254.782 53.3555 250.866C56.7817 247.645 61.5515 246.657 66.1378 246.048C80.1107 244.167 95.3064 244.698 109.36 245.869C108.81 240.31 105.465 234.989 103.272 229.924C98.6933 219.348 94.7152 208.897 94.6698 197.111C94.6504 189.633 95.7839 182.347 98.1328 175.236C101.914 163.788 109.784 153.084 119.206 145.717C122.178 143.395 125.043 141.014 128.467 139.407C129.775 138.794 130.679 137.78 132.089 137.399C139.575 135.314 146.359 132.836 154.164 131.701C156.193 131.406 158.149 131.3 158.512 131.458C158.876 131.617 159.646 132.818 160.225 134.12C164.846 144.538 169.416 154.761 176.961 163.428C178.626 165.342 180.487 167.239 181.093 167.645C185.557 170.634 190.28 173.021 195.805 173.037C202.808 173.057 208.173 169.085 212.893 164.43C227.562 149.963 233.826 131.521 243.27 113.695C244.011 112.297 244.138 110.75 244.878 109.346C248.636 102.298 249.997 94.0518 253.232 86.8116C256.705 78.9426 255.569 68.2973 250.76 61.2464C246.572 55.1045 240.381 50.6732 235.026 45.6385C222.369 33.7096 208.726 22.9911 194.223 13.4106C185.95 7.89478 176.289 3.09558 166.551 1.02857C163.794 0.44347 160.71 -0.0203934 159.698 0.000691327C158.686 0.021776 156.314 0.564707 154.427 1.20252ZM260.87 35.054C260.886 35.4704 263.369 38.3643 266.384 41.4795C273.279 48.6039 280.366 56.4578 285.438 65.068C289.783 72.4179 285.272 85.1683 281.659 92.3464C280.013 95.6165 279.248 99.4041 277.7 102.757C276.156 106.089 274.409 109.383 272.999 112.772C272.432 114.121 264.859 127.591 266.03 128.707C266.257 128.918 269.045 129.218 272.234 129.376C283.368 129.928 294.373 131.837 305.442 133.061C308.921 133.446 312.363 133.989 313.085 134.268C316.092 135.445 319.561 134.911 322.573 136.076C327.852 138.065 333.995 137.758 339.044 140.467C339.84 140.889 340.789 141.226 341.153 141.221C343.582 141.15 347.27 144.62 349.455 145.633C355.114 148.256 359.846 152.949 363.212 158.104C364.63 160.281 365.79 162.411 365.79 162.848C365.79 163.286 366.143 164.171 366.58 164.825C372.409 173.534 365.875 187.354 363.655 196.057C362.945 198.898 361.822 202.46 360.45 205.018C357.904 209.765 356.622 215.261 354.431 220.172C353.208 222.912 351.866 225.679 350.483 228.343C348.281 232.581 346.948 237.882 343.91 241.652C342.645 243.223 342.624 243.228 339.856 242.606C335.822 241.705 331.83 240.615 327.844 239.523C316.644 236.492 303.519 236.417 293.239 242.079C270.756 254.655 293.738 298.683 301.594 314.394C306.802 324.835 312.288 335.001 318.756 344.704C322.629 350.496 327.808 356.378 334.696 358.398C346.599 361.889 360.258 358.019 372.12 356.111C386.512 353.767 401.337 350.797 415.079 345.8C418.194 344.677 421.637 343.975 424.567 342.395C425.436 341.931 426.564 341.546 427.07 341.546C428.21 341.534 429.227 340.153 430.233 339.675C436.659 336.623 443.773 332.035 447.348 325.727C449.33 322.231 449.662 318.033 449.035 314.131C447.459 304.406 437.776 296.163 430.497 290.532C428.541 289.014 426.939 287.538 426.939 287.248C426.939 286.958 427.329 285.951 427.803 285.008C433.431 273.938 438.398 262.616 443.495 251.272C444.249 249.606 444.865 247.946 444.876 247.582C444.915 246.251 446.463 245.395 446.447 244.024C446.436 243.587 446.863 242.401 447.385 241.389C449.751 236.846 451.191 231.194 452.703 226.366C454.476 220.682 455.978 214.919 457.742 209.235C461.976 195.829 462.966 180.626 462.998 166.802C463.024 155.756 462.883 145.129 459.582 134.516C458.916 132.353 458.726 130.006 457.832 127.927C455.649 122.786 453.972 117.464 451.359 112.509C444.375 99.2618 434.057 87.3202 422.195 78.2407C420.308 76.7964 418.653 75.4891 418.505 75.3363C415.993 72.8244 412.203 71.6857 409.676 69.1585C408.819 68.3018 407.525 68.5838 406.645 67.7036C405.234 66.2928 403.066 65.5617 401.374 64.562C400.215 63.882 397.131 62.2532 394.522 60.946C391.852 59.6083 388.561 58.7733 386.088 57.0875C384.797 56.1955 383.171 56.5388 381.871 55.6643C380.002 54.3899 377.465 54.0891 375.414 53.1605C370.149 50.7976 364.014 49.0756 358.415 47.6995C348.743 45.2948 260.714 31.2748 260.87 35.054ZM86.9583 273.379C82.3756 273.712 76.6075 274.248 72.463 276.358C68.442 278.387 64.5146 281.201 61.8682 284.897C57.841 290.605 55.7585 298.137 53.3029 304.643C52.7072 306.235 52.0536 308.254 51.848 309.123C51.3673 311.157 50.1361 312.834 49.766 314.922C48.5839 321.766 45.2227 328.454 43.504 335.216C41.9984 341.139 40.4014 347.137 39.245 353.138C36.5579 367.081 32.6867 412.912 62.1845 403.693C65.8431 402.569 69.6333 401.97 73.2536 400.699C76.9162 399.402 80.3116 397.569 83.7957 395.86C85.9313 394.813 89.5918 391.697 92.2293 392.313C92.9567 392.487 94.2586 393.546 95.1283 394.68C99.0447 399.759 103.504 404.409 107.7 409.254C121.217 424.922 135.646 440.28 152.714 452.104C162.539 458.91 173.938 463.976 185.263 467.764C193.321 470.46 201.952 471.956 210.3 473.415C213.041 473.895 218.533 474.064 228.221 473.979C237.452 473.892 246.833 473.758 255.894 471.781C262.864 470.286 269.676 467.859 276.451 465.667C293.779 459.996 309.557 448.887 322.836 436.654C329.785 430.267 335.874 422.846 341.564 415.337C347.994 406.832 354.534 398.421 360.893 389.857C362.033 388.316 365.795 385.105 365.795 382.92C365.795 381.417 351.764 383.674 350.245 383.789C340.301 384.562 329.871 385.434 319.937 384.216C316.89 383.847 313.401 383.167 312.178 382.704C308.664 381.386 305.861 378.026 303.824 375.013C297.215 365.294 291.649 355.144 286.74 344.44C286.301 343.487 283.534 335.171 281.195 339.211C280.905 339.707 279.303 341.857 277.637 343.992C269.369 354.563 261.284 368.492 249.042 374.902C245.448 376.771 241.558 378.027 237.709 379.251C235.343 380.005 233.603 380.126 228.221 379.899C224.6 379.746 219.972 379.219 217.943 378.729C212.169 377.319 206.297 374.317 201.692 370.532C201.16 370.095 196.674 365.709 191.725 360.781C186.77 355.852 179.971 348.647 176.613 344.767C173.25 340.882 170.325 337.625 170.109 337.519C167.939 336.408 180.23 322.203 181.694 319.529C183.504 316.169 185.29 312.787 186.412 309.123C187.779 304.615 188.085 298.344 186.127 293.969C184.439 290.235 180.836 286.672 177.488 284.38C175.341 282.911 172.826 282.105 170.504 280.938C152.749 272.02 128.883 273.08 109.887 273.142C98.5808 273.174 88.2655 273.279 86.9583 273.379Z" fill="#70B264"/>
<path d="M171.57 220.848C172.04 226.128 176.228 241.263 183.072 257.662C189.917 274.06 208.688 303.511 212.266 307.193C215.845 310.874 218.271 312.882 224.269 308.532C230.267 304.183 257.369 268.371 264.304 251.303C271.851 232.728 289.989 192.403 261.635 183.032C244.087 177.232 231.28 197.422 228.611 205.454C225.943 213.486 225.263 219.508 224.269 220.848C223.274 222.188 221.273 221.519 220.939 220.848C220.781 220.53 219.385 209.607 214.935 201.104C210.019 191.711 201.597 184.709 191.918 185.709C169.235 188.051 170.27 206.236 171.57 220.848Z" fill="#114B07"/>
</svg>
