<svg width="2000" height="455" viewBox="0 0 2000 455" fill="none" xmlns="http://www.w3.org/2000/svg">
<path d="M650.292 148.808C669.763 148.808 684.25 151.974 693.706 158.352C703.162 164.73 707.867 175.95 707.867 192.058C707.867 208.167 703.162 220.923 693.799 230.374C684.437 239.825 669.297 244.527 648.429 244.527H629.097L628.399 294.481L646.379 296.111C646.379 300.394 645.075 305.003 642.466 309.938H590.667L589.969 302.116C596.397 299.649 603.012 297.833 609.766 296.576C608.834 236.752 608.089 192.245 607.483 163.101C603.338 162.356 596.583 160.493 587.22 157.56L588.385 148.808H650.339H650.292ZM676.285 219.573C683.179 213.055 686.626 204.442 686.626 193.688C686.626 182.933 683.225 175.484 676.518 171.248C669.763 167.011 658.956 164.916 644.05 164.916C641.302 164.916 636.597 165.009 630.029 165.149C630.029 165.289 629.796 186.844 629.33 229.815L646.146 229.582C659.329 229.443 669.391 226.091 676.285 219.573Z" fill="white"/>
<path d="M720.77 252.395C720.77 232.934 725.242 217.664 734.139 206.723C743.036 195.736 756.778 190.289 775.364 190.289C793.95 190.289 807.366 195.317 815.658 205.373C823.949 215.429 828.095 230.281 828.095 249.881C828.095 269.481 823.67 284.937 814.866 296.157C806.015 307.377 792.646 312.964 774.665 312.964C756.685 312.964 743.223 307.75 734.279 297.321C725.289 286.893 720.817 271.948 720.817 252.441L720.77 252.395ZM774.06 298.857C786.87 298.857 795.534 294.854 800.053 286.799C804.571 278.745 806.854 267.293 806.854 252.395C806.854 228.791 801.636 213.986 791.202 207.98C786.917 205.513 780.861 204.302 773.128 204.302C765.396 204.302 758.036 205.932 751.142 209.144C744.993 220.969 741.918 234.703 741.918 250.346C741.918 265.989 743.921 276.976 747.928 285.077C752.539 294.295 761.25 298.857 774.06 298.857Z" fill="white"/>
<path d="M863.73 295.18C869.087 297.461 875.655 298.625 883.434 298.625C891.213 298.625 897.269 297.181 901.741 294.248C906.213 291.362 908.402 287.358 908.402 282.284C908.402 277.209 906.306 273.019 902.207 269.62C898.061 266.268 892.983 263.242 887.021 260.635C881.012 258.028 875.049 255.281 869.04 252.348C863.031 249.462 858 245.598 853.855 240.849C849.709 236.1 847.659 230.56 847.659 224.275C847.659 213.707 851.2 205.373 858.233 199.321C865.314 193.269 875.096 190.243 887.58 190.243C900.064 190.243 911.849 193.083 922.935 198.762C923.075 200.299 923.168 204.396 923.168 211.053C923.168 217.711 922.47 223.437 921.072 228.186C917.392 229.396 913.014 230.001 907.936 230.001L900.343 206.537C896.943 204.861 892.378 204.023 886.648 204.023C880.919 204.023 876.307 205.513 872.953 208.492C869.553 211.472 867.876 215.243 867.876 219.759C867.876 224.275 869.972 228.232 874.211 231.631C878.45 235.029 883.527 238.055 889.536 240.709C895.545 243.409 901.508 246.249 907.517 249.229C913.526 252.208 918.603 256.119 922.842 260.961C927.081 265.803 929.177 271.343 929.177 277.628C929.177 288.662 924.938 297.321 916.414 303.513C907.89 309.705 897.409 312.824 884.971 312.824C878.217 312.824 870.997 311.707 863.311 309.472C855.625 307.237 849.196 304.398 843.979 300.859C843.979 290.57 844.911 281.446 846.728 273.484C850.268 272.879 855.019 272.553 860.982 272.553L863.73 295.086V295.18Z" fill="white"/>
<path d="M965.744 295.645L963.881 208.912H946.133L945.434 200.857C946.972 199.787 951.443 197.785 958.803 194.852L977.669 165.382C980.743 165.708 983.119 166.453 984.796 167.71L984.563 193.036C996.069 193.036 1005.52 193.827 1012.88 195.364C1012.88 199.507 1011.58 204.023 1008.97 208.958H984.097C983.771 227.348 983.492 255.281 983.166 292.712C991.783 293.178 1000.35 294.714 1008.97 297.321L1008.74 305.375C1006.6 306.772 1001.1 308.355 992.296 310.217C983.445 312.079 976.225 312.964 970.542 312.964C969.75 311.753 968.772 309.1 967.561 305.003C966.35 300.952 965.697 297.833 965.697 295.692L965.744 295.645Z" fill="white"/>
<path d="M1092.82 312.917C1072.23 312.917 1055.83 305.841 1043.54 291.734C1031.24 277.628 1025.09 256.724 1025.09 229.024C1025.09 201.323 1030.4 180.559 1041.11 166.639C1051.78 152.765 1068.46 145.828 1091.1 145.828C1113.73 145.828 1132.79 151.508 1148.3 162.868C1148.3 170.689 1147.23 179.954 1145.08 190.708C1141.68 191.313 1137.26 191.639 1131.72 191.639L1126.64 167.942C1117.88 165.056 1107.12 163.566 1094.4 163.566C1085.97 163.566 1074.37 165.847 1059.65 170.456C1058.72 172.132 1057.56 174.507 1056.21 177.486C1054.81 180.466 1053.04 186.751 1050.8 196.341C1048.57 205.932 1047.45 215.569 1047.45 225.206C1047.45 272.321 1062.73 295.831 1093.29 295.831C1109.4 295.831 1121.84 292.945 1130.6 287.079C1131.2 267.758 1131.58 253.233 1131.76 243.596L1109.45 238.055L1110.15 230.001H1163.11C1165.72 234.936 1167.02 239.499 1167.02 243.828C1161.01 244.76 1154.59 245.365 1147.69 245.691C1148.62 271.483 1149.09 289.267 1149.09 299.09C1145.27 301.697 1137.63 304.677 1126.17 307.936C1114.71 311.195 1103.63 312.871 1092.91 312.871L1092.82 312.917Z" fill="white"/>
<path d="M1245.24 208.399C1242.63 208.399 1238.76 209.331 1233.59 211.146C1228.47 213.008 1223.81 215.15 1219.66 217.571C1218.73 251.65 1218.12 277.162 1217.8 294.202L1237.13 296.064C1237.13 300.347 1235.83 304.956 1233.22 309.891H1180.25L1179.55 301.837C1186.64 299.37 1193.53 297.554 1200.28 296.297C1199.35 257.33 1198.61 228.512 1197.95 209.75C1189.52 209.284 1182.77 208.353 1177.69 207.003L1178.62 195.038C1186.77 192.757 1198.79 191.593 1214.77 191.593C1217.24 195.41 1218.78 200.345 1219.38 206.304C1237.04 195.55 1247.56 190.196 1250.92 190.196C1254.27 190.196 1258.18 190.848 1262.66 192.151C1267.13 193.455 1270.39 194.898 1272.58 196.435C1272.58 211.751 1271.13 224.275 1268.2 233.959C1266.06 234.564 1263.54 234.89 1260.7 234.89C1257.86 234.89 1255.9 234.797 1254.83 234.657L1250.22 209.563C1249.43 208.772 1247.75 208.399 1245.14 208.399H1245.24Z" fill="white"/>
<path d="M1283.01 252.395C1283.01 232.934 1287.48 217.664 1296.38 206.723C1305.28 195.736 1319.02 190.289 1337.61 190.289C1356.19 190.289 1369.61 195.317 1377.9 205.373C1386.19 215.429 1390.34 230.281 1390.34 249.881C1390.34 269.481 1385.91 284.937 1377.11 296.157C1368.26 307.377 1354.89 312.964 1336.91 312.964C1318.93 312.964 1305.47 307.75 1296.52 297.321C1287.53 286.893 1283.06 271.948 1283.06 252.441L1283.01 252.395ZM1336.3 298.857C1349.11 298.857 1357.78 294.854 1362.3 286.799C1366.81 278.745 1369.1 267.293 1369.1 252.395C1369.1 228.791 1363.88 213.986 1353.44 207.98C1349.16 205.513 1343.1 204.302 1335.37 204.302C1327.64 204.302 1320.28 205.932 1313.38 209.144C1307.24 220.969 1304.16 234.703 1304.16 250.346C1304.16 265.989 1306.16 276.976 1310.17 285.077C1314.78 294.295 1323.49 298.857 1336.3 298.857Z" fill="white"/>
<path d="M1497.15 219.48H1496.22L1469.99 309.938H1447.21L1415.68 208.679L1396.35 206.816C1396.35 202.533 1397.65 197.924 1400.26 192.989H1453.22L1453.92 201.044C1448.98 203.185 1443.58 204.861 1437.57 206.118L1453.92 268.922L1458.07 289.174H1460.35L1464.96 268.689L1488.21 192.989C1490.07 192.85 1491.37 192.757 1492.12 192.757L1508 193.222L1532.64 268.922L1537.72 289.174H1539.77L1543.45 268.689L1562.78 206.072L1543.45 200.997L1544.15 192.943H1595.95C1598.56 197.878 1599.86 202.44 1599.86 206.77C1593.57 207.561 1587.29 208.074 1581 208.399L1549.46 309.891H1526.68L1497.2 219.433L1497.15 219.48Z" fill="white"/>
<path d="M1621.71 295.645L1619.85 208.912H1602.1L1601.4 200.857C1602.94 199.787 1607.41 197.785 1614.77 194.852L1633.63 165.382C1636.71 165.708 1639.08 166.453 1640.76 167.71L1640.53 193.036C1652.03 193.036 1661.49 193.827 1668.85 195.364C1668.85 199.507 1667.55 204.023 1664.94 208.958H1640.06C1639.74 227.348 1639.46 255.281 1639.13 292.712C1647.75 293.178 1656.32 294.714 1664.94 297.321L1664.7 305.375C1662.56 306.772 1657.06 308.355 1648.26 310.217C1639.41 312.079 1632.19 312.964 1626.51 312.964C1625.72 311.753 1624.74 309.1 1623.53 305.003C1622.31 300.952 1621.66 297.833 1621.66 295.692L1621.71 295.645Z" fill="white"/>
<path d="M1717.02 138.938C1721.77 138.938 1725.17 139.078 1727.12 139.404C1727.12 142.15 1726.7 145.735 1725.87 150.111C1725.03 154.488 1724.47 157.048 1724.14 157.84C1724.14 161.238 1724 168.175 1723.68 178.79C1723.35 189.358 1723.21 197.598 1723.21 203.418C1729.83 199.88 1736.39 196.807 1742.91 194.2C1749.44 191.593 1753.54 190.289 1755.21 190.289C1769.93 190.289 1780.6 193.921 1787.21 201.23C1793.83 208.539 1797.14 219.619 1797.14 234.471C1797.14 238.754 1796.53 258.726 1795.27 294.295L1814.6 296.157C1814.6 300.44 1813.3 305.049 1810.69 309.984H1757.73L1757.03 301.93C1764.11 299.463 1771 297.647 1777.76 296.39C1776.83 256.212 1776.03 233.819 1775.34 229.303C1774.64 224.787 1773.52 220.83 1771.98 217.478C1770.44 214.126 1768.16 211.705 1765.09 210.355C1762.01 208.958 1757.96 208.26 1752.88 208.26C1742.45 208.26 1732.48 210.727 1722.93 215.616L1721.53 294.295L1740.87 296.157C1740.87 300.44 1739.56 305.049 1736.95 309.984H1683.99L1683.29 301.93C1690.37 299.463 1697.26 297.647 1704.02 296.39L1701.27 157.141C1692.84 156.676 1686.09 155.745 1681.01 154.395L1681.94 142.43C1689.77 140.149 1701.41 138.985 1716.92 138.985L1717.02 138.938Z" fill="white"/>
<path d="M1842.51 309.426C1839.85 310.031 1837.24 310.357 1834.77 310.357C1832.31 310.357 1829.79 310.217 1827.32 309.891C1826.72 307.005 1826.39 304.118 1826.39 301.232C1826.39 298.345 1826.48 296.157 1826.72 294.714C1828.95 294.202 1831.33 293.969 1833.84 293.969C1836.36 293.969 1839.06 294.062 1841.9 294.295C1842.51 296.949 1842.83 299.556 1842.83 302.023C1842.83 304.491 1842.74 307.005 1842.51 309.472V309.426Z" fill="white"/>
<path d="M1892.54 311.753C1880.24 311.753 1871.11 308.308 1865.05 301.418C1859 294.528 1856.02 284.658 1856.02 271.902C1856.02 244.061 1868.41 230.188 1893.14 230.188C1897.15 230.188 1901.29 230.793 1905.58 231.957C1909.86 233.121 1913.26 234.424 1915.69 235.867C1915.36 245.365 1914.38 252.115 1912.75 256.119C1910.89 256.631 1909.44 256.911 1908.28 256.911H1905.67C1905.16 256.911 1904.55 256.864 1903.81 256.771L1899.99 239.918C1896.64 239.592 1894.68 239.452 1894.17 239.452C1886.81 239.452 1880.94 241.687 1876.6 246.203C1872.27 250.719 1870.08 258.261 1870.08 268.922C1870.08 279.583 1871.76 287.637 1875.07 293.178C1878.37 298.718 1884.8 301.465 1894.35 301.465C1898.87 301.465 1905.9 299.323 1915.55 295.04C1917.5 297.694 1918.53 300.068 1918.62 302.116C1913.4 305.189 1908.28 307.61 1903.3 309.332C1898.27 311.055 1894.68 311.94 1892.54 311.94V311.753Z" fill="white"/>
<path d="M1928.45 271.529C1928.45 258.54 1931.43 248.391 1937.35 241.082C1943.26 233.772 1952.44 230.094 1964.83 230.094C1977.22 230.094 1986.17 233.446 1991.71 240.15C1997.25 246.855 2000 256.724 2000 269.853C2000 282.982 1997.07 293.224 1991.2 300.673C1985.33 308.122 1976.38 311.893 1964.41 311.893C1952.44 311.893 1943.45 308.401 1937.49 301.465C1931.48 294.528 1928.5 284.518 1928.5 271.529H1928.45ZM1963.99 302.535C1972.52 302.535 1978.34 299.835 1981.32 294.481C1984.35 289.127 1985.84 281.446 1985.84 271.529C1985.84 255.793 1982.35 245.923 1975.4 241.92C1972.52 240.29 1968.51 239.452 1963.34 239.452C1958.17 239.452 1953.28 240.523 1948.67 242.664C1944.57 250.532 1942.52 259.704 1942.52 270.132C1942.52 280.561 1943.87 287.87 1946.52 293.317C1949.6 299.463 1955.42 302.535 1963.95 302.535H1963.99Z" fill="white"/>
<path d="M235.155 105.139C239.114 108.816 241.583 109.235 247.639 107.28C251.738 105.977 251.878 105.93 258.399 102.019C261.893 99.9243 262.266 99.5053 260.822 99.2259C256.35 98.2948 232.034 100.297 231.848 101.6C231.848 101.833 233.292 103.416 235.155 105.139Z" fill="white"/>
<path d="M318.583 279.118C316.906 268.037 316.44 266.687 311.13 258.959C306.891 252.767 304.702 250.951 299.298 249.136C293.056 247.041 290.121 241.408 294.36 239.638C296.084 238.893 295.991 238.707 291.892 234.191C288.584 230.607 284.625 227.906 281.877 223.158C280.386 220.318 278.849 218.688 276.799 217.711C272.886 215.802 271.396 215.848 269.299 218.083C268.321 219.107 267.157 219.899 266.737 219.806C266.318 219.712 265.759 220.504 265.573 221.528C265.34 222.646 264.595 223.484 263.756 223.577C262.964 223.67 261.381 224.647 260.309 225.765C259.191 226.882 256.163 228.372 253.601 229.07C244.145 231.631 232.966 227.301 227.05 218.781C223.51 213.707 221.926 209.331 221.972 204.954C221.972 200.904 222.252 200.112 224.348 197.505C225.606 195.922 227.236 194.386 227.888 194.2C229.845 193.502 230.963 190.15 233.431 189.591L229.612 184.33C227.516 181.444 225.513 178.231 225.233 177.207C222.951 168.827 230.124 166.034 235.947 163.52C237.95 162.263 241.863 161.192 248.85 159.888C250.108 159.655 252.996 159.609 255.325 159.749C257.514 159.888 259.983 159.655 260.961 159.19C264.315 159.469 268.601 159.749 272.001 159.981C275.122 161.89 281.271 162.495 285.23 161.192C290.68 159.376 297.109 154.721 296.503 153.044C295.385 151.275 279.641 155.698 276.892 156.49C256.443 158.166 256.303 150.996 253.834 143.035C251.878 135.446 252.297 130.698 255.232 127.113C257.514 124.32 262.545 120.455 263.663 120.688C264.082 120.781 264.781 120.455 265.247 119.99C270.091 115.288 289.656 121.759 295.059 123.482C303.77 126.135 307.264 126.415 308.614 124.459C310.431 121.899 315.136 121.061 319.654 122.411C321.844 123.063 323.707 123.342 323.8 122.969C323.847 122.644 322.915 120.874 321.657 119.105C318.63 114.822 317.698 111.424 318.816 108.816C319.515 107.14 319.794 105.464 318.723 105.185C309.267 100.716 296.41 96.8516 280.805 97.8758C278.988 97.9689 277.312 100.157 274.097 103.044C271.629 105.278 267.669 108.211 265.247 109.561C262.871 110.911 259.89 112.587 258.632 113.286C254.58 115.567 244.984 117.383 239.767 116.917C237.344 116.684 230.59 113.658 229.332 112.308C228.96 111.889 226.863 112.587 224.581 113.891C222.345 115.195 220.109 116.172 219.643 116.079C219.177 115.986 217.827 116.405 216.662 116.964C213.541 118.36 203.805 121.154 201.663 115.8C201.849 114.869 195.933 117.476 194.023 119.152C192.626 120.362 192.672 120.409 195.421 121.34C198.169 122.271 204.364 126.508 205.855 128.51C206.461 129.348 206.833 130.651 206.693 131.443C206.414 132.886 201.01 136.843 191.554 142.43C184.288 146.713 183.682 147.737 185.778 151.275C186.71 152.858 187.828 154.208 188.247 154.301C188.666 154.395 189.784 155.652 190.716 157.141C192.3 159.655 192.346 160.121 191.089 163.845C190.343 166.08 188.899 169.06 187.874 170.503C186.291 172.738 181.353 175.997 177.813 177.16C177.021 177.44 176.835 178.185 177.067 180.419C177.347 183.026 177.067 183.678 174.832 186.006C170.546 190.475 166.913 192.431 161.276 193.269C158.109 193.734 154.009 193.967 150.329 194.759C142.131 196.621 137.566 198.25 133.327 200.764L128.762 203.464L128.017 209.843C127.598 213.334 127.178 216.826 126.992 217.571C126.619 219.387 126.992 219.387 129.973 217.478C131.324 216.593 134.352 215.336 136.681 214.684C144.6 212.543 154.103 214.219 158.295 222.226C159.46 225.253 159.273 232.003 157.969 235.681C157.27 237.636 154.755 241.594 152.286 244.527L147.861 249.834L151.447 255.514C153.404 258.633 155.267 261.38 155.593 261.566C155.873 261.752 156.012 262.544 155.873 263.242C155.733 263.941 155.919 265.57 156.292 266.827C157.13 269.713 157.224 272.74 156.525 277.116C155.966 280.747 155.686 280.189 163.233 290.989C166.633 295.971 167.611 298.113 167.704 304.165C168.729 311.148 168.403 318.97 169.335 326.372C169.521 330.562 170.406 332.843 170.406 332.843C174.133 336.568 180.142 343.737 184.707 346.996C206.973 356.866 236.599 371.485 267.483 365.432C268.228 364.92 265.946 360.777 264.734 360.544C263.29 360.265 259.657 349.231 259.471 344.622C259.191 340.059 257.048 331.307 255.325 326.418C254.766 326.325 254.254 325.72 254.16 325.115C254.067 324.51 252.018 323.16 249.595 322.135C245.123 322.601 235.155 303.653 225.466 303.513C219.503 301.93 217.407 300.952 213.494 298.019C203.852 290.757 202.082 283.028 206.88 268.456C209.535 260.402 212.47 255.281 217.78 249.462C220.249 246.761 229.612 239.825 230.543 240.011C234.922 238.754 238.183 235.122 243.4 235.262C250.76 233.307 261.52 232.376 267.622 233.121C270.417 233.493 273.771 233.772 275.029 233.819C277.451 233.865 285.23 237.217 288.025 239.359C289.236 240.337 289.469 241.128 288.957 242.897C288.305 244.992 288.025 245.132 284.951 244.713C283.134 244.434 281.504 243.875 281.318 243.456C276.147 236.333 254.952 241.78 246.241 243.363C230.078 246.808 218.386 258.4 214.892 274.462C213.448 281.027 213.262 284.565 214.1 287.451C215.032 290.477 220.482 293.829 228.96 296.576C237.298 299.276 241.257 301.79 244.797 306.446C249.129 312.172 255.278 316.688 259.936 317.619C261.054 317.852 262.545 318.783 263.197 319.714C265.154 322.415 269.486 339.873 269.532 345.274C271.209 353.84 273.305 355.562 275.681 358.589C276.566 359.659 277.079 359.659 279.128 358.682C282.901 356.866 285.091 356.913 287.001 358.682C287.932 359.566 288.724 359.939 288.817 359.52C294.314 359.985 298.879 356.121 302.559 355.749C302.931 355.842 303.258 355.749 303.304 355.562C303.351 355.376 305.354 350.441 307.823 344.529C313.552 330.795 314.484 327.675 316.906 314.966C320.167 297.647 320.539 290.105 318.909 278.978L318.583 279.118Z" fill="white"/>
<path d="M150.423 287.963C146.836 284.332 146.23 282.423 146.65 275.952C147.162 267.339 147.162 267.153 146.65 264.872C146.184 262.777 145.345 261.333 141.945 256.724C141.013 255.421 139.895 253.559 139.476 252.488C137.706 247.925 139.01 244.573 142.457 241.128C149.491 234.703 152.379 224.787 147.814 222.645C147.348 222.459 146.882 222.273 146.417 222.133C142.923 221.295 138.172 222.645 132.628 226.044L126.573 229.722C125.268 242.525 127.877 250.812 131.091 262.59C135.284 278.187 137.473 284.984 138.777 286.706C139.383 287.498 140.175 289.267 140.594 290.664C141.945 295.552 145.205 303.932 146.603 306.213C148.28 308.913 148.839 310.077 150.143 313.336C150.656 314.686 151.494 315.617 151.96 315.431C152.798 315.105 157.177 321.437 156.944 322.647C156.898 322.973 157.503 323.392 158.388 323.579C159.273 323.765 160.018 323.439 160.112 322.927C160.205 322.415 159.925 318.97 159.506 315.338C158.248 304.817 161.416 298.904 150.469 287.917L150.423 287.963Z" fill="white"/>
<path d="M140.454 189.777C149.258 187.123 157.317 187.682 165.748 183.259C168.357 181.025 168.403 180.047 166.167 176.928C163 172.505 164.677 170.13 170.639 170.503C173.061 170.643 174.692 170.084 177.207 168.175C180.282 165.847 182.611 163.101 182.937 161.331C183.03 160.912 181.4 158.166 179.303 155.14C175.903 150.251 175.577 149.367 176.136 146.573C176.648 143.966 177.533 142.802 181.213 139.776C183.635 137.774 186.896 135.679 188.387 135.074C189.877 134.469 192.533 133.072 194.21 131.908L197.284 129.767L195.188 128.37C194.023 127.625 190.902 126.508 188.247 125.902L183.403 124.785L177.673 129.72C172.456 134.189 169.894 136.564 164.816 141.638C147.535 157.7 140.035 174.46 133.234 190.196C132.861 191.127 132.675 191.919 132.815 191.919C133.001 191.919 136.402 190.988 140.408 189.777H140.454Z" fill="white"/>
<path d="M387.757 281.865C388.642 279.816 388.13 278.559 385.847 277.162C381.049 274.276 375.925 266.548 375.226 261.24C374.947 259.192 375.04 254.955 375.366 251.789C375.692 248.624 375.739 246.017 375.459 245.97C375.18 245.923 373.084 247.134 370.848 248.717C366.376 251.743 361.019 253.698 355.057 252.255C352.448 251.417 351.097 250.393 349.234 247.693C346.532 243.828 344.063 235.635 343.923 230.281C343.83 227.767 342.945 223.996 341.967 222.087C341.548 222.04 340.942 222.227 340.476 222.599C339.032 223.763 334.281 222.971 333.908 221.528C333.769 220.969 333.443 221.901 333.117 223.577C332.837 225.299 332.278 227.161 331.905 227.767C331.533 228.372 330.461 230.188 329.483 231.864C327.62 235.122 320.959 241.361 318.909 241.687C318.21 241.78 317.046 242.152 316.347 242.478C314.018 243.503 310.059 243.922 308.288 243.409C305.354 242.525 306.239 243.549 310.385 245.784C316.254 248.996 322.915 258.913 325.57 268.55C326.688 272.507 327.573 276.697 327.573 277.814C327.573 293.876 328.645 309.891 323.148 327.489C322.356 329.491 321.052 333.169 320.26 335.683C318.303 342.015 318.536 342.573 315.183 349.091L314.158 351.978L319.421 349.65C344.809 343.085 372.059 311.707 387.291 291.315C388.875 289.174 388.922 288.894 387.804 287.731C386.732 286.613 386.732 284.192 387.71 281.958L387.757 281.865Z" fill="white"/>
<path d="M341.92 116.498C340.896 116.126 339.358 115.288 338.52 114.589C337.588 113.844 337.029 113.425 336.657 113.379C336.191 113.332 336.005 113.891 335.725 115.101C335.492 116.312 334.607 117.243 333.443 117.569C332.371 117.895 331.346 118.221 331.16 118.36C330.974 118.454 331.486 119.943 332.325 121.619C334.002 125.064 335.026 130.93 334.467 133.91C333.629 138.24 329.669 138.147 322.822 133.631C320.446 132.094 318.164 130.698 317.744 130.605C317.325 130.511 316.114 131.443 315.089 132.7C314.065 133.957 312.62 134.934 311.875 134.888C306.705 134.562 294.5 131.908 288.491 129.86C277.172 125.996 272.141 126.228 264.548 130.977C262.126 132.513 261.846 132.979 261.52 136.75C260.822 144.897 263.803 150.158 269.393 150.484C276.846 150.763 283.6 146.946 290.96 146.34C299.997 144.059 305.307 145.223 307.916 150.065C309.034 152.113 306.285 158.492 302.792 162.03C295.385 169.432 279.361 172.505 268.834 168.454C266.551 167.57 265.247 167.43 264.781 167.942C264.362 168.361 262.172 168.454 259.843 168.129C253.229 167.197 250.48 167.337 245.403 168.92C238.043 171.155 234.782 173.017 234.363 175.205C234.177 176.229 234.27 177.16 234.549 177.207C235.062 177.3 236.739 179.395 242.002 186.472C244.425 189.731 243.633 193.595 240.046 195.922C238.602 196.854 236.133 199.088 234.596 200.857C230.404 205.606 230.59 208.213 235.761 215.988C237.67 218.874 240.139 220.271 245.03 221.202C249.642 222.087 251.226 221.388 258.073 215.15C260.123 213.288 263.663 210.774 265.852 209.563C269.672 207.515 270.184 207.468 275.588 208.492C282.109 209.75 285.743 211.845 287.886 215.662C291.007 220.83 302.605 233.912 309.08 235.029C313.226 235.309 320.446 230.467 322.496 226.044C326.269 217.943 328.691 215.336 331.253 216.779C332.231 217.292 332.884 217.012 333.722 215.709C335.026 213.567 341.781 211.705 345.274 212.45C350.165 213.567 352.914 218.316 353.985 227.627C355.01 236.426 357.153 243.968 358.737 244.294C359.482 244.434 362.137 243.13 364.699 241.361C371.36 236.752 375.32 235.355 379.931 236.054C383.006 236.519 384.03 237.031 385.055 238.614C386.546 240.989 387.151 248.065 386.22 252.907C385.474 256.911 385.847 262.171 387.105 264.825C388.223 267.106 391.763 270.924 392.555 270.645C392.881 270.505 394.139 268.55 395.303 266.268C412.259 217.757 403.129 173.808 369.357 137.96C362.743 129.534 349.793 119.338 341.92 116.545V116.498Z" fill="white"/>
<path d="M294.267 25.5279L248.151 55.3702C90.8445 -56.5035 -53.4194 53.4614 19.4345 227.161C53.6256 308.774 136.588 405.517 239.347 450.909C287.886 472.324 375.32 406.82 437.18 320.832C578.276 124.599 442.956 -71.2617 294.267 25.5279ZM351.377 343.691C278.849 405.051 157.876 374.324 128.017 290.431C120.983 270.691 104.819 214.964 131.743 167.523C138.125 155.139 147.814 143.547 156.571 134.701C187.269 97.0377 249.036 80.6035 304.143 91.7303C355.895 102.205 401.825 137.076 410.722 201.602C420.504 272.553 389.434 312.778 351.377 343.737V343.691Z" fill="white"/>
</svg>
