<svg width="2000" height="456" viewBox="0 0 2000 456" fill="none" xmlns="http://www.w3.org/2000/svg">
<path d="M650.292 149.13C669.763 149.13 684.25 152.303 693.706 158.695C703.162 165.086 707.867 176.331 707.867 192.474C707.867 208.617 703.162 221.401 693.8 230.872C684.437 240.343 669.297 245.056 648.429 245.056H629.097L628.399 295.118L646.379 296.751C646.379 301.044 645.075 305.663 642.466 310.608H590.667L589.969 302.77C596.397 300.297 603.012 298.478 609.766 297.218C608.834 237.264 608.089 192.66 607.483 163.453C603.338 162.707 596.583 160.841 587.22 157.901L588.385 149.13H650.339H650.292ZM676.285 220.048C683.179 213.516 686.626 204.885 686.626 194.107C686.626 183.329 683.225 175.864 676.518 171.618C669.763 167.373 658.956 165.273 644.05 165.273C641.302 165.273 636.597 165.366 630.029 165.506C630.029 165.646 629.796 187.248 629.33 230.312L646.146 230.079C659.329 229.939 669.391 226.58 676.285 220.048Z" fill="black"/>
<path d="M720.77 252.941C720.77 233.438 725.242 218.135 734.139 207.171C743.037 196.16 756.778 190.701 775.364 190.701C793.95 190.701 807.366 195.74 815.658 205.818C823.949 215.895 828.095 230.779 828.095 250.421C828.095 270.064 823.67 285.554 814.866 296.798C806.015 308.042 792.646 313.641 774.666 313.641C756.685 313.641 743.223 308.415 734.279 297.964C725.289 287.513 720.817 272.537 720.817 252.987L720.77 252.941ZM774.06 299.504C786.87 299.504 795.534 295.492 800.053 287.42C804.571 279.348 806.854 267.871 806.854 252.941C806.854 229.286 801.636 214.449 791.202 208.43C786.917 205.958 780.861 204.745 773.128 204.745C765.396 204.745 758.036 206.378 751.142 209.597C744.993 221.448 741.919 235.211 741.919 250.888C741.919 266.564 743.922 277.575 747.928 285.694C752.539 294.932 761.25 299.504 774.06 299.504Z" fill="black"/>
<path d="M863.73 295.818C869.087 298.104 875.655 299.271 883.434 299.271C891.213 299.271 897.269 297.824 901.741 294.885C906.213 291.992 908.402 287.98 908.402 282.894C908.402 277.809 906.306 273.61 902.206 270.204C898.061 266.844 892.983 263.812 887.021 261.199C881.012 258.586 875.049 255.833 869.04 252.894C863.031 250.001 858 246.129 853.855 241.37C849.709 236.611 847.659 231.059 847.659 224.76C847.659 214.169 851.199 205.818 858.233 199.752C865.314 193.687 875.096 190.654 887.58 190.654C900.064 190.654 911.849 193.5 922.935 199.192C923.075 200.732 923.168 204.838 923.168 211.51C923.168 218.182 922.47 223.92 921.072 228.679C917.392 229.892 913.014 230.499 907.936 230.499L900.343 206.984C896.943 205.304 892.378 204.465 886.648 204.465C880.919 204.465 876.307 205.958 872.953 208.944C869.553 211.93 867.876 215.709 867.876 220.235C867.876 224.76 869.972 228.726 874.211 232.132C878.45 235.538 883.527 238.571 889.536 241.23C895.545 243.936 901.508 246.782 907.517 249.768C913.526 252.754 918.603 256.673 922.842 261.526C927.081 266.378 929.177 271.93 929.177 278.229C929.177 289.286 924.938 297.964 916.414 304.17C907.89 310.375 897.409 313.501 884.971 313.501C878.217 313.501 870.997 312.381 863.311 310.142C855.625 307.902 849.196 305.056 843.979 301.51C843.979 291.199 844.911 282.054 846.728 274.076C850.268 273.47 855.019 273.143 860.982 273.143L863.73 295.725V295.818Z" fill="black"/>
<path d="M965.744 296.285L963.881 209.364H946.133L945.435 201.292C946.972 200.219 951.444 198.213 958.803 195.273L977.669 165.74C980.743 166.066 983.119 166.813 984.796 168.073L984.563 193.454C996.069 193.454 1005.52 194.247 1012.88 195.786C1012.88 199.939 1011.58 204.465 1008.97 209.41H984.097C983.771 227.84 983.492 255.833 983.166 293.345C991.783 293.812 1000.35 295.352 1008.97 297.964L1008.74 306.036C1006.6 307.436 1001.1 309.022 992.296 310.888C983.445 312.754 976.225 313.641 970.542 313.641C969.75 312.428 968.772 309.768 967.561 305.663C966.35 301.604 965.698 298.478 965.698 296.331L965.744 296.285Z" fill="black"/>
<path d="M1092.82 313.594C1072.23 313.594 1055.83 306.502 1043.54 292.366C1031.24 278.229 1025.09 257.28 1025.09 229.519C1025.09 201.759 1030.4 180.95 1041.11 166.999C1051.78 153.096 1068.46 146.144 1091.1 146.144C1113.73 146.144 1132.79 151.836 1148.3 163.22C1148.3 171.059 1147.23 180.343 1145.08 191.121C1141.68 191.727 1137.26 192.054 1131.72 192.054L1126.64 168.306C1117.88 165.413 1107.12 163.92 1094.4 163.92C1085.97 163.92 1074.37 166.206 1059.65 170.825C1058.72 172.505 1057.56 174.884 1056.21 177.87C1054.81 180.856 1053.04 187.155 1050.8 196.766C1048.57 206.378 1047.45 216.035 1047.45 225.693C1047.45 272.91 1062.73 296.471 1093.29 296.471C1109.4 296.471 1121.84 293.579 1130.6 287.7C1131.2 268.337 1131.58 253.781 1131.76 244.123L1109.45 238.571L1110.15 230.499H1163.11C1165.72 235.445 1167.02 240.017 1167.02 244.356C1161.02 245.289 1154.59 245.896 1147.69 246.222C1148.62 272.07 1149.09 289.893 1149.09 299.737C1145.27 302.35 1137.63 305.336 1126.17 308.602C1114.71 311.868 1103.63 313.548 1092.91 313.548L1092.82 313.594Z" fill="black"/>
<path d="M1245.24 208.85C1242.63 208.85 1238.76 209.783 1233.59 211.603C1228.47 213.469 1223.81 215.616 1219.66 218.042C1218.73 252.194 1218.12 277.762 1217.8 294.838L1237.13 296.705C1237.13 300.997 1235.83 305.616 1233.22 310.562H1180.25L1179.55 302.49C1186.64 300.017 1193.53 298.198 1200.28 296.938C1199.35 257.886 1198.61 229.006 1197.95 210.203C1189.52 209.737 1182.77 208.804 1177.69 207.451L1178.62 195.46C1186.77 193.174 1198.79 192.007 1214.77 192.007C1217.24 195.833 1218.78 200.779 1219.38 206.751C1237.04 195.973 1247.56 190.608 1250.92 190.608C1254.27 190.608 1258.18 191.261 1262.66 192.567C1267.13 193.874 1270.39 195.32 1272.58 196.86C1272.58 212.21 1271.13 224.76 1268.2 234.465C1266.06 235.071 1263.54 235.398 1260.7 235.398C1257.86 235.398 1255.9 235.305 1254.83 235.165L1250.22 210.017C1249.43 209.224 1247.75 208.85 1245.14 208.85H1245.24Z" fill="black"/>
<path d="M1283.01 252.941C1283.01 233.438 1287.48 218.135 1296.38 207.171C1305.28 196.16 1319.02 190.701 1337.61 190.701C1356.19 190.701 1369.61 195.74 1377.9 205.818C1386.19 215.895 1390.34 230.779 1390.34 250.421C1390.34 270.064 1385.91 285.554 1377.11 296.798C1368.26 308.042 1354.89 313.641 1336.91 313.641C1318.93 313.641 1305.47 308.415 1296.52 297.964C1287.53 287.513 1283.06 272.537 1283.06 252.987L1283.01 252.941ZM1336.3 299.504C1349.11 299.504 1357.78 295.492 1362.3 287.42C1366.81 279.348 1369.1 267.871 1369.1 252.941C1369.1 229.286 1363.88 214.449 1353.44 208.43C1349.16 205.958 1343.1 204.745 1335.37 204.745C1327.64 204.745 1320.28 206.378 1313.38 209.597C1307.24 221.448 1304.16 235.211 1304.16 250.888C1304.16 266.564 1306.16 277.575 1310.17 285.694C1314.78 294.932 1323.49 299.504 1336.3 299.504Z" fill="black"/>
<path d="M1497.15 219.955H1496.22L1469.99 310.608H1447.21L1415.68 209.13L1396.35 207.264C1396.35 202.972 1397.65 198.353 1400.26 193.407H1453.22L1453.92 201.479C1448.98 203.625 1443.58 205.304 1437.57 206.564L1453.92 269.504L1458.07 289.799H1460.35L1464.96 269.271L1488.21 193.407C1490.07 193.267 1491.37 193.174 1492.12 193.174L1508 193.64L1532.64 269.504L1537.72 289.799H1539.77L1543.45 269.271L1562.78 206.517L1543.45 201.432L1544.15 193.36H1595.95C1598.56 198.306 1599.86 202.878 1599.86 207.217C1593.57 208.011 1587.29 208.524 1581 208.85L1549.46 310.562H1526.68L1497.2 219.908L1497.15 219.955Z" fill="black"/>
<path d="M1621.71 296.285L1619.85 209.364H1602.1L1601.4 201.292C1602.94 200.219 1607.41 198.213 1614.77 195.273L1633.63 165.74C1636.71 166.066 1639.08 166.813 1640.76 168.073L1640.53 193.454C1652.03 193.454 1661.49 194.247 1668.85 195.786C1668.85 199.939 1667.55 204.465 1664.94 209.41H1640.06C1639.74 227.84 1639.46 255.833 1639.13 293.345C1647.75 293.812 1656.32 295.352 1664.94 297.964L1664.7 306.036C1662.56 307.436 1657.06 309.022 1648.26 310.888C1639.41 312.754 1632.19 313.641 1626.51 313.641C1625.72 312.428 1624.74 309.768 1623.53 305.663C1622.31 301.604 1621.66 298.478 1621.66 296.331L1621.71 296.285Z" fill="black"/>
<path d="M1717.02 139.239C1721.77 139.239 1725.17 139.379 1727.12 139.705C1727.12 142.458 1726.7 146.051 1725.87 150.436C1725.03 154.822 1724.47 157.388 1724.14 158.181C1724.14 161.587 1724 168.539 1723.68 179.177C1723.35 189.768 1723.21 198.026 1723.21 203.858C1729.83 200.312 1736.39 197.233 1742.91 194.62C1749.44 192.007 1753.54 190.701 1755.21 190.701C1769.93 190.701 1780.6 194.34 1787.21 201.665C1793.83 208.99 1797.14 220.095 1797.14 234.978C1797.14 239.27 1796.53 259.286 1795.27 294.932L1814.6 296.798C1814.6 301.09 1813.3 305.709 1810.69 310.655H1757.73L1757.03 302.583C1764.11 300.111 1771 298.291 1777.76 297.031C1776.83 256.767 1776.03 234.325 1775.34 229.799C1774.64 225.273 1773.52 221.308 1771.98 217.948C1770.44 214.589 1768.16 212.163 1765.09 210.81C1762.01 209.41 1757.96 208.71 1752.88 208.71C1742.45 208.71 1732.48 211.183 1722.93 216.082L1721.53 294.932L1740.87 296.798C1740.87 301.09 1739.56 305.709 1736.95 310.655H1683.99L1683.29 302.583C1690.37 300.111 1697.26 298.291 1704.02 297.031L1701.27 157.481C1692.84 157.015 1686.09 156.082 1681.01 154.729L1681.94 142.738C1689.77 140.452 1701.41 139.285 1716.92 139.285L1717.02 139.239Z" fill="black"/>
<path d="M1842.51 310.095C1839.85 310.702 1837.24 311.028 1834.77 311.028C1832.31 311.028 1829.79 310.888 1827.32 310.562C1826.72 307.669 1826.39 304.776 1826.39 301.883C1826.39 298.991 1826.48 296.798 1826.72 295.352C1828.95 294.838 1831.33 294.605 1833.84 294.605C1836.36 294.605 1839.06 294.698 1841.9 294.932C1842.51 297.591 1842.83 300.204 1842.83 302.677C1842.83 305.149 1842.74 307.669 1842.51 310.142V310.095Z" fill="black"/>
<path d="M1892.54 312.428C1880.24 312.428 1871.11 308.975 1865.05 302.07C1859 295.165 1856.02 285.274 1856.02 272.49C1856.02 244.589 1868.41 230.686 1893.14 230.686C1897.15 230.686 1901.29 231.292 1905.58 232.459C1909.86 233.625 1913.26 234.931 1915.69 236.378C1915.36 245.896 1914.38 252.661 1912.75 256.673C1910.89 257.186 1909.45 257.466 1908.28 257.466H1905.67C1905.16 257.466 1904.55 257.42 1903.81 257.326L1899.99 240.437C1896.63 240.11 1894.68 239.97 1894.17 239.97C1886.81 239.97 1880.94 242.21 1876.6 246.735C1872.27 251.261 1870.08 258.819 1870.08 269.504C1870.08 280.188 1871.76 288.26 1875.07 293.812C1878.37 299.364 1884.8 302.117 1894.35 302.117C1898.87 302.117 1905.9 299.971 1915.55 295.678C1917.5 298.338 1918.53 300.717 1918.62 302.77C1913.4 305.849 1908.28 308.275 1903.3 310.002C1898.27 311.728 1894.68 312.614 1892.54 312.614V312.428Z" fill="black"/>
<path d="M1928.45 272.117C1928.45 259.099 1931.43 248.928 1937.35 241.603C1943.26 234.278 1952.44 230.592 1964.83 230.592C1977.22 230.592 1986.17 233.952 1991.71 240.67C1997.25 247.389 2000 257.28 2000 270.437C2000 283.594 1997.07 293.859 1991.2 301.324C1985.33 308.789 1976.38 312.568 1964.41 312.568C1952.44 312.568 1943.45 309.069 1937.49 302.117C1931.48 295.165 1928.5 285.134 1928.5 272.117H1928.45ZM1963.99 303.19C1972.52 303.19 1978.34 300.484 1981.32 295.118C1984.35 289.753 1985.84 282.054 1985.84 272.117C1985.84 256.347 1982.35 246.456 1975.4 242.443C1972.52 240.81 1968.51 239.97 1963.34 239.97C1958.17 239.97 1953.28 241.043 1948.67 243.19C1944.57 251.075 1942.52 260.266 1942.52 270.717C1942.52 281.168 1943.87 288.493 1946.52 293.952C1949.6 300.111 1955.42 303.19 1963.95 303.19H1963.99Z" fill="black"/>
<path d="M294.267 25.5832C442.956 -71.4158 578.276 124.868 437.18 321.526C375.32 407.747 287.885 473.393 239.347 451.884C136.588 406.394 53.6256 309.395 19.4345 227.653C-53.4194 53.5771 90.8444 -56.6257 248.151 55.49L294.267 25.5832Z" fill="#114B07"/>
<path d="M304.143 91.929C249.036 80.7314 187.316 97.2012 156.572 134.993C147.814 143.904 138.125 155.522 131.743 167.886C104.819 215.429 120.983 271.277 128.017 291.059C157.829 375.134 278.849 405.928 351.377 344.434C389.434 313.454 420.504 273.096 410.722 201.992C401.825 137.326 355.895 102.427 304.143 91.8824V91.929ZM318.583 105.459C319.608 105.693 319.375 107.419 318.676 109.099C317.605 111.758 318.536 115.117 321.518 119.41C322.775 121.183 323.707 122.909 323.66 123.282C323.614 123.655 321.751 123.376 319.515 122.722C314.996 121.369 310.292 122.256 308.475 124.775C307.077 126.688 303.63 126.455 294.92 123.795C289.469 122.069 269.905 115.584 265.107 120.296C264.641 120.763 263.943 121.089 263.523 120.996C262.405 120.763 257.375 124.635 255.092 127.435C252.157 131.027 251.738 135.786 253.695 143.391C256.163 151.369 256.35 158.555 276.753 156.875C279.501 156.128 295.292 151.649 296.364 153.422C297.016 155.102 290.541 159.814 285.091 161.587C281.131 162.894 274.983 162.287 271.862 160.374C268.461 160.141 264.176 159.861 260.822 159.581C259.843 160.048 257.375 160.281 255.185 160.141C252.856 160.001 249.968 160.048 248.71 160.281C241.723 161.587 237.857 162.66 235.807 163.92C229.984 166.393 222.811 169.239 225.093 177.637C225.419 178.664 227.376 181.883 229.472 184.776L233.292 190.048C230.823 190.608 229.705 193.967 227.749 194.667C227.096 194.9 225.513 196.393 224.208 197.979C222.112 200.592 221.879 201.385 221.833 205.444C221.786 209.83 223.416 214.216 226.91 219.301C232.826 227.84 244.052 232.179 253.462 229.612C256.024 228.913 259.052 227.42 260.169 226.3C261.287 225.18 262.825 224.2 263.617 224.107C264.455 224.014 265.2 223.174 265.433 222.054C265.62 221.028 266.179 220.235 266.598 220.328C267.017 220.421 268.182 219.628 269.16 218.602C271.256 216.362 272.7 216.315 276.659 218.228C278.709 219.255 280.246 220.888 281.737 223.687C284.485 228.446 288.445 231.152 291.752 234.745C295.898 239.224 295.991 239.457 294.221 240.204C289.982 241.976 292.917 247.622 299.158 249.721C304.562 251.541 306.751 253.361 310.99 259.566C316.301 267.311 316.766 268.664 318.443 279.768C320.12 290.919 319.701 298.478 316.44 315.834C314.065 328.571 313.086 331.697 307.357 345.461C304.888 351.339 302.885 356.332 302.838 356.518C302.792 356.705 302.466 356.798 302.093 356.705C298.367 357.078 293.848 360.951 288.351 360.484C288.258 360.904 287.466 360.531 286.535 359.644C284.671 357.825 282.482 357.778 278.662 359.644C276.613 360.624 276.054 360.577 275.215 359.551C272.84 356.472 270.697 354.792 269.067 346.207C269.02 340.748 264.688 323.299 262.731 320.593C262.033 319.66 260.589 318.726 259.471 318.493C254.766 317.56 248.617 313.034 244.332 307.296C240.791 302.63 236.785 300.111 228.494 297.404C220.016 294.652 214.566 291.292 213.634 288.26C212.749 285.414 212.982 281.821 214.426 275.243C217.92 259.146 229.658 247.529 245.776 244.076C254.486 242.49 275.681 236.984 280.852 244.169C281.038 244.589 282.668 245.196 284.485 245.429C287.56 245.896 287.886 245.756 288.491 243.609C289.004 241.837 288.817 241.043 287.56 240.064C284.765 237.871 276.986 234.558 274.563 234.511C273.306 234.511 269.952 234.185 267.157 233.812C261.101 233.065 250.294 233.998 242.934 235.958C237.717 235.818 234.456 239.457 230.078 240.717C229.146 240.53 219.783 247.482 217.314 250.188C212.004 256.067 209.069 261.152 206.414 269.224C201.616 283.827 203.386 291.572 213.029 298.851C216.942 301.79 219.038 302.77 225 304.356C234.736 304.45 244.658 323.439 249.13 323.019C251.505 324.045 253.555 325.398 253.695 326.005C253.834 326.611 254.347 327.218 254.859 327.311C256.629 332.257 258.725 340.982 259.005 345.554C259.191 350.173 262.871 361.231 264.269 361.511C265.48 361.744 267.809 365.896 267.017 366.409C236.133 372.475 206.507 357.871 184.241 347.933C179.676 344.668 173.714 337.482 169.941 333.75C169.941 333.75 169.102 331.464 168.869 327.265C167.938 319.846 168.217 312.055 167.239 305.009C167.146 298.897 166.167 296.798 162.767 291.806C155.221 280.981 155.454 281.495 156.059 277.902C156.758 273.516 156.711 270.484 155.826 267.591C155.454 266.331 155.267 264.698 155.407 263.998C155.547 263.299 155.407 262.552 155.127 262.319C154.848 262.085 152.985 259.379 150.982 256.253L147.395 250.561L151.82 245.242C154.242 242.303 156.804 238.337 157.503 236.378C158.807 232.645 158.994 225.927 157.829 222.894C153.637 214.869 144.134 213.236 136.215 215.336C133.886 215.989 130.858 217.295 129.507 218.135C126.573 220.001 126.154 220.001 126.526 218.228C126.666 217.482 127.132 213.983 127.551 210.483L128.296 204.091L132.861 201.385C137.1 198.866 141.665 197.279 149.864 195.367C153.544 194.527 157.643 194.34 160.81 193.874C166.447 193.034 170.08 191.121 174.366 186.595C176.602 184.216 176.881 183.609 176.602 180.996C176.369 178.757 176.555 177.964 177.347 177.73C180.887 176.564 185.825 173.298 187.409 171.059C188.433 169.612 189.878 166.626 190.623 164.387C191.881 160.654 191.881 160.141 190.25 157.668C189.319 156.175 188.201 154.915 187.781 154.822C187.362 154.729 186.244 153.376 185.313 151.789C183.216 148.243 183.868 147.264 191.089 142.925C200.545 137.279 205.948 133.36 206.228 131.914C206.367 131.121 205.995 129.767 205.389 128.974C203.899 126.968 197.703 122.676 194.955 121.789C192.207 120.856 192.16 120.809 193.557 119.596C195.467 117.917 201.383 115.351 201.197 116.237C203.386 121.603 213.075 118.85 216.196 117.403C217.361 116.844 218.712 116.424 219.177 116.517C219.643 116.61 221.879 115.631 224.115 114.324C226.444 112.971 228.494 112.271 228.867 112.738C230.124 114.138 236.879 117.17 239.301 117.357C244.518 117.87 254.114 116.004 258.166 113.718C259.424 113.018 262.405 111.338 264.781 109.985C267.157 108.632 271.116 105.693 273.632 103.453C276.846 100.56 278.523 98.321 280.339 98.2743C295.898 97.2479 308.754 101.12 318.257 105.599L318.583 105.459ZM336.61 113.624C336.983 113.671 337.542 114.091 338.474 114.837C339.312 115.537 340.849 116.377 341.874 116.75C349.746 119.55 362.743 129.767 369.311 138.212C403.036 174.138 412.166 218.182 395.257 266.798C394.092 269.084 392.835 271.043 392.508 271.183C391.717 271.463 388.13 267.684 387.058 265.351C385.801 262.692 385.428 257.42 386.173 253.407C387.105 248.602 386.499 241.51 385.009 239.084C384.031 237.497 382.959 236.984 379.885 236.518C375.273 235.818 371.314 237.171 364.652 241.837C362.09 243.609 359.435 244.916 358.69 244.776C357.153 244.449 355.01 236.891 353.939 228.073C352.821 218.695 350.119 213.936 345.228 212.863C341.781 212.07 335.026 213.983 333.676 216.129C332.837 217.435 332.185 217.762 331.207 217.202C328.645 215.802 326.176 218.368 322.449 226.486C320.4 230.919 313.18 235.771 309.034 235.491C302.559 234.371 290.913 221.214 287.839 216.082C285.696 212.303 282.063 210.157 275.541 208.897C270.138 207.871 269.626 207.917 265.806 209.97C263.57 211.183 260.076 213.703 258.027 215.569C251.179 221.821 249.642 222.521 244.984 221.634C240.139 220.701 237.67 219.255 235.714 216.409C230.543 208.617 230.357 206.004 234.549 201.245C236.087 199.472 238.556 197.279 240 196.3C243.586 193.92 244.378 190.094 241.956 186.828C236.692 179.737 235.015 177.637 234.503 177.544C234.177 177.497 234.084 176.564 234.317 175.538C234.736 173.345 237.997 171.525 245.356 169.239C250.434 167.699 253.182 167.513 259.797 168.446C262.126 168.772 264.315 168.679 264.735 168.259C265.247 167.746 266.551 167.886 268.787 168.772C279.315 172.785 295.339 169.752 302.745 162.334C306.285 158.788 309.034 152.396 307.869 150.343C305.214 145.491 299.95 144.324 290.913 146.61C283.507 147.217 276.753 151.043 269.346 150.763C263.756 150.436 260.775 145.164 261.474 136.999C261.8 133.22 262.033 132.753 264.502 131.214C272.094 126.455 277.125 126.222 288.445 130.094C294.454 132.147 306.658 134.76 311.829 135.133C312.574 135.18 314.018 134.2 315.043 132.94C316.068 131.68 317.279 130.747 317.698 130.841C318.117 130.934 320.4 132.287 322.775 133.873C329.623 138.399 333.582 138.492 334.421 134.153C334.98 131.167 333.955 125.288 332.278 121.836C331.44 120.156 330.927 118.663 331.114 118.57C331.3 118.477 332.325 118.103 333.396 117.777C334.607 117.403 335.446 116.47 335.679 115.304C335.911 114.138 336.098 113.531 336.61 113.578V113.624ZM260.775 99.4407C262.219 99.7207 261.846 100.141 258.353 102.24C251.831 106.159 251.692 106.206 247.592 107.512C241.537 109.472 239.068 109.052 235.108 105.366C233.245 103.64 231.755 102.053 231.801 101.82C231.987 100.514 256.303 98.5076 260.775 99.4407ZM183.403 125.055L188.247 126.175C190.902 126.781 194.07 127.901 195.188 128.648L197.284 130.047L194.21 132.194C192.486 133.36 189.878 134.806 188.387 135.366C186.896 135.926 183.636 138.072 181.213 140.079C177.533 143.111 176.648 144.278 176.136 146.89C175.577 149.736 175.903 150.623 179.303 155.475C181.4 158.461 183.03 161.261 182.937 161.681C182.564 163.5 180.282 166.253 177.207 168.539C174.692 170.452 173.061 171.012 170.639 170.872C164.677 170.499 163.046 172.925 166.167 177.31C168.403 180.436 168.357 181.416 165.748 183.656C157.317 188.042 149.258 187.528 140.454 190.188C136.448 191.401 133.001 192.381 132.861 192.334C132.722 192.287 132.861 191.494 133.281 190.608C140.082 174.838 147.581 158.041 164.863 141.945C169.987 136.859 172.503 134.48 177.72 130.001L183.449 125.055H183.403ZM341.967 222.521C342.945 224.434 343.83 228.213 343.924 230.732C344.063 236.098 346.579 244.309 349.234 248.182C351.097 250.888 352.448 251.914 355.057 252.754C361.019 254.2 366.376 252.241 370.848 249.208C373.13 247.669 375.18 246.409 375.459 246.456C375.739 246.502 375.692 249.162 375.366 252.288C375.04 255.46 374.994 259.706 375.227 261.759C375.879 267.078 381.049 274.823 385.847 277.715C388.13 279.068 388.642 280.375 387.757 282.428C386.779 284.714 386.825 287.093 387.85 288.213C388.968 289.426 388.922 289.659 387.338 291.806C372.106 312.241 344.855 343.688 319.468 350.266L314.204 352.599L315.229 349.706C318.583 343.175 318.304 342.615 320.307 336.269C321.099 333.75 322.356 330.064 323.195 328.058C328.691 310.422 327.62 294.418 327.62 278.275C327.62 277.155 326.735 273.003 325.617 268.991C322.915 259.333 316.301 249.395 310.431 246.176C306.332 243.936 305.447 242.91 308.335 243.796C310.105 244.309 314.065 243.889 316.394 242.863C317.139 242.536 318.257 242.21 318.956 242.07C320.959 241.743 327.667 235.491 329.53 232.225C330.461 230.546 331.533 228.726 331.952 228.119C332.325 227.513 332.884 225.647 333.163 223.92C333.443 222.194 333.815 221.261 333.955 221.868C334.281 223.361 339.079 224.154 340.523 222.941C341.035 222.521 341.594 222.334 342.014 222.427L341.967 222.521ZM146.463 222.614C146.976 222.754 147.441 222.894 147.861 223.127C152.426 225.273 149.538 235.211 142.504 241.65C139.01 245.102 137.752 248.462 139.523 253.034C139.942 254.061 141.06 255.973 141.991 257.28C145.392 261.899 146.23 263.392 146.696 265.445C147.209 267.731 147.209 267.918 146.696 276.549C146.277 283.034 146.883 284.947 150.469 288.586C161.416 299.597 158.248 305.523 159.506 316.067C159.925 319.706 160.205 323.112 160.112 323.672C160.019 324.232 159.227 324.512 158.388 324.325C157.55 324.139 156.898 323.719 156.944 323.392C157.177 322.179 152.845 315.834 151.96 316.16C151.494 316.347 150.656 315.367 150.143 314.061C148.839 310.795 148.28 309.628 146.603 306.922C145.206 304.636 141.945 296.191 140.594 291.339C140.221 289.939 139.383 288.12 138.777 287.373C137.473 285.694 135.284 278.835 131.091 263.205C127.877 251.354 125.315 243.096 126.573 230.266L132.628 226.58C138.218 223.174 142.97 221.821 146.417 222.661L146.463 222.614Z" fill="white"/>
</svg>
