<svg width="1947" height="474" viewBox="0 0 1947 474" fill="none" xmlns="http://www.w3.org/2000/svg">
<path d="M597.292 154.808C616.763 154.808 631.25 157.974 640.706 164.352C650.162 170.73 654.867 181.95 654.867 198.058C654.867 214.167 650.162 226.923 640.799 236.374C631.436 245.825 616.297 250.527 595.429 250.527H576.097L575.399 300.481L593.379 302.111C593.379 306.394 592.075 311.003 589.466 315.938H537.667L536.969 308.116C543.397 305.649 550.011 303.833 556.766 302.576C555.834 242.752 555.089 198.244 554.483 169.1C550.338 168.356 543.583 166.493 534.22 163.56L535.385 154.808H597.339H597.292ZM623.285 225.573C630.179 219.055 633.626 210.442 633.626 199.688C633.626 188.933 630.225 181.484 623.518 177.248C616.763 173.011 605.956 170.916 591.05 170.916C588.302 170.916 583.597 171.009 577.029 171.149C577.029 171.289 576.796 192.844 576.33 235.815L593.146 235.582C606.329 235.443 616.39 232.091 623.285 225.573Z" fill="white"/>
<path d="M667.77 258.395C667.77 238.934 672.242 223.664 681.139 212.723C690.036 201.736 703.778 196.289 722.364 196.289C740.95 196.289 754.366 201.317 762.657 211.373C770.949 221.429 775.095 236.281 775.095 255.881C775.095 275.481 770.67 290.937 761.866 302.157C753.015 313.377 739.646 318.964 721.665 318.964C703.685 318.964 690.223 313.75 681.279 303.321C672.289 292.893 667.817 277.948 667.817 258.441L667.77 258.395ZM721.06 304.857C733.87 304.857 742.534 300.854 747.052 292.799C751.571 284.745 753.853 273.292 753.853 258.395C753.853 234.791 748.636 219.986 738.202 213.98C733.916 211.513 727.861 210.302 720.128 210.302C712.396 210.302 705.036 211.932 698.142 215.144C691.993 226.969 688.918 240.703 688.918 256.346C688.918 271.989 690.921 282.976 694.927 291.077C699.539 300.295 708.25 304.857 721.06 304.857Z" fill="white"/>
<path d="M810.73 301.179C816.087 303.461 822.655 304.625 830.434 304.625C838.213 304.625 844.269 303.181 848.741 300.248C853.213 297.362 855.402 293.358 855.402 288.283C855.402 283.209 853.306 279.019 849.206 275.62C845.061 272.268 839.983 269.242 834.021 266.635C828.012 264.028 822.049 261.281 816.04 258.348C810.031 255.462 805 251.597 800.855 246.849C796.709 242.1 794.659 236.56 794.659 230.275C794.659 219.707 798.199 211.373 805.233 205.321C812.314 199.269 822.096 196.243 834.58 196.243C847.064 196.243 858.849 199.082 869.935 204.762C870.075 206.299 870.168 210.396 870.168 217.053C870.168 223.711 869.47 229.437 868.072 234.186C864.392 235.396 860.013 236.001 854.936 236.001L847.343 212.537C843.943 210.861 839.378 210.023 833.648 210.023C827.919 210.023 823.307 211.513 819.953 214.492C816.553 217.472 814.876 221.243 814.876 225.759C814.876 230.275 816.972 234.232 821.211 237.631C825.45 241.029 830.527 244.055 836.536 246.709C842.545 249.409 848.508 252.249 854.517 255.229C860.526 258.208 865.603 262.119 869.842 266.961C874.081 271.803 876.177 277.343 876.177 283.628C876.177 294.662 871.938 303.321 863.414 309.513C854.889 315.705 844.409 318.824 831.971 318.824C825.217 318.824 817.997 317.707 810.311 315.472C802.625 313.237 796.196 310.397 790.979 306.859C790.979 296.57 791.911 287.445 793.728 279.484C797.268 278.879 802.019 278.553 807.982 278.553L810.73 301.086V301.179Z" fill="white"/>
<path d="M912.744 301.645L910.881 214.911H893.133L892.434 206.857C893.972 205.786 898.443 203.785 905.803 200.852L924.669 171.382C927.743 171.708 930.119 172.453 931.796 173.71L931.563 199.036C943.069 199.036 952.525 199.827 959.885 201.364C959.885 205.507 958.581 210.023 955.972 214.958H931.097C930.771 233.348 930.492 261.281 930.166 298.712C938.783 299.178 947.354 300.714 955.972 303.321L955.739 311.375C953.596 312.772 948.1 314.355 939.296 316.217C930.445 318.079 923.225 318.964 917.542 318.964C916.75 317.753 915.772 315.1 914.561 311.003C913.35 306.952 912.697 303.833 912.697 301.692L912.744 301.645Z" fill="white"/>
<path d="M1039.82 318.917C1019.23 318.917 1002.83 311.841 990.536 297.734C978.238 283.628 972.089 262.724 972.089 235.024C972.089 207.323 977.4 186.559 988.113 172.639C998.781 158.765 1015.46 151.828 1038.1 151.828C1060.73 151.828 1079.79 157.508 1095.3 168.868C1095.3 176.689 1094.23 185.954 1092.08 196.708C1088.68 197.313 1084.26 197.639 1078.71 197.639L1073.64 173.942C1064.88 171.056 1054.12 169.566 1041.4 169.566C1032.97 169.566 1021.37 171.847 1006.65 176.456C1005.72 178.132 1004.56 180.507 1003.21 183.486C1001.81 186.466 1000.04 192.751 997.802 202.341C995.567 211.932 994.449 221.569 994.449 231.206C994.449 278.321 1009.73 301.831 1040.28 301.831C1056.4 301.831 1068.84 298.945 1077.6 293.079C1078.2 273.758 1078.58 259.233 1078.76 249.596L1056.45 244.055L1057.15 236.001H1110.11C1112.72 240.936 1114.02 245.499 1114.02 249.828C1108.01 250.759 1101.59 251.365 1094.69 251.691C1095.62 277.483 1096.09 295.267 1096.09 305.09C1092.27 307.697 1084.63 310.677 1073.17 313.936C1061.71 317.195 1050.63 318.871 1039.91 318.871L1039.82 318.917Z" fill="white"/>
<path d="M1192.23 214.399C1189.63 214.399 1185.76 215.33 1180.59 217.146C1175.47 219.008 1170.81 221.15 1166.66 223.571C1165.73 257.65 1165.12 283.162 1164.8 300.202L1184.13 302.064C1184.13 306.347 1182.83 310.956 1180.22 315.891H1127.25L1126.55 307.837C1133.63 305.369 1140.53 303.554 1147.28 302.297C1146.35 263.33 1145.61 234.511 1144.95 215.749C1136.52 215.284 1129.77 214.353 1124.69 213.003L1125.62 201.038C1133.77 198.757 1145.79 197.593 1161.77 197.593C1164.24 201.41 1165.78 206.345 1166.38 212.304C1184.04 201.55 1194.56 196.196 1197.92 196.196C1201.27 196.196 1205.18 196.848 1209.66 198.151C1214.13 199.455 1217.39 200.898 1219.58 202.434C1219.58 217.751 1218.13 230.275 1215.2 239.959C1213.06 240.564 1210.54 240.89 1207.7 240.89C1204.86 240.89 1202.9 240.797 1201.83 240.657L1197.22 215.563C1196.43 214.772 1194.75 214.399 1192.14 214.399H1192.23Z" fill="white"/>
<path d="M1230.01 258.395C1230.01 238.934 1234.48 223.664 1243.38 212.723C1252.28 201.736 1266.02 196.289 1284.61 196.289C1303.19 196.289 1316.61 201.317 1324.9 211.373C1333.19 221.429 1337.34 236.281 1337.34 255.881C1337.34 275.481 1332.91 290.937 1324.11 302.157C1315.26 313.377 1301.89 318.964 1283.91 318.964C1265.93 318.964 1252.47 313.75 1243.52 303.321C1234.53 292.893 1230.06 277.948 1230.06 258.441L1230.01 258.395ZM1283.3 304.857C1296.11 304.857 1304.78 300.854 1309.29 292.799C1313.81 284.745 1316.1 273.292 1316.1 258.395C1316.1 234.791 1310.88 219.986 1300.44 213.98C1296.16 211.513 1290.1 210.302 1282.37 210.302C1274.64 210.302 1267.28 211.932 1260.38 215.144C1254.24 226.969 1251.16 240.703 1251.16 256.346C1251.16 271.989 1253.16 282.976 1257.17 291.077C1261.78 300.295 1270.49 304.857 1283.3 304.857Z" fill="white"/>
<path d="M1444.15 225.48H1443.22L1416.99 315.938H1394.21L1362.68 214.679L1343.35 212.816C1343.35 208.533 1344.65 203.924 1347.26 198.989H1400.22L1400.92 207.044C1395.98 209.185 1390.58 210.861 1384.57 212.118L1400.92 274.922L1405.07 295.174H1407.35L1411.96 274.689L1435.21 198.989C1437.07 198.85 1438.37 198.757 1439.12 198.757L1455 199.222L1479.64 274.922L1484.72 295.174H1486.77L1490.45 274.689L1509.78 212.072L1490.45 206.997L1491.15 198.943H1542.95C1545.56 203.878 1546.86 208.44 1546.86 212.77C1540.57 213.561 1534.29 214.073 1528 214.399L1496.46 315.891H1473.68L1444.2 225.433L1444.15 225.48Z" fill="white"/>
<path d="M1568.71 301.645L1566.85 214.911H1549.1L1548.4 206.857C1549.94 205.786 1554.41 203.785 1561.77 200.852L1580.63 171.382C1583.71 171.708 1586.08 172.453 1587.76 173.71L1587.53 199.036C1599.03 199.036 1608.49 199.827 1615.85 201.364C1615.85 205.507 1614.55 210.023 1611.94 214.958H1587.06C1586.74 233.348 1586.46 261.281 1586.13 298.712C1594.75 299.178 1603.32 300.714 1611.94 303.321L1611.7 311.375C1609.56 312.772 1604.06 314.355 1595.26 316.217C1586.41 318.079 1579.19 318.964 1573.51 318.964C1572.72 317.753 1571.74 315.1 1570.53 311.003C1569.31 306.952 1568.66 303.833 1568.66 301.692L1568.71 301.645Z" fill="white"/>
<path d="M1664.02 144.938C1668.77 144.938 1672.17 145.078 1674.12 145.404C1674.12 148.15 1673.7 151.735 1672.87 156.111C1672.03 160.488 1671.47 163.048 1671.14 163.84C1671.14 167.238 1671 174.175 1670.68 184.79C1670.35 195.358 1670.21 203.598 1670.21 209.418C1676.83 205.88 1683.39 202.807 1689.91 200.2C1696.44 197.593 1700.54 196.289 1702.21 196.289C1716.93 196.289 1727.6 199.92 1734.21 207.23C1740.83 214.539 1744.14 225.619 1744.14 240.471C1744.14 244.754 1743.53 264.726 1742.27 300.295L1761.6 302.157C1761.6 306.44 1760.3 311.049 1757.69 315.984H1704.73L1704.03 307.93C1711.11 305.463 1718 303.647 1724.76 302.39C1723.83 262.212 1723.03 239.819 1722.34 235.303C1721.64 230.787 1720.52 226.83 1718.98 223.478C1717.44 220.126 1715.16 217.705 1712.09 216.355C1709.01 214.958 1704.96 214.26 1699.88 214.26C1689.45 214.26 1679.48 216.727 1669.93 221.615L1668.53 300.295L1687.87 302.157C1687.87 306.44 1686.56 311.049 1683.95 315.984H1630.99L1630.29 307.93C1637.37 305.463 1644.26 303.647 1651.02 302.39L1648.27 163.141C1639.84 162.676 1633.09 161.745 1628.01 160.395L1628.94 148.43C1636.77 146.148 1648.41 144.985 1663.92 144.985L1664.02 144.938Z" fill="white"/>
<path d="M1789.51 315.426C1786.85 316.031 1784.24 316.357 1781.77 316.357C1779.31 316.357 1776.79 316.217 1774.32 315.891C1773.72 313.005 1773.39 310.118 1773.39 307.232C1773.39 304.345 1773.48 302.157 1773.72 300.714C1775.95 300.202 1778.33 299.969 1780.84 299.969C1783.36 299.969 1786.06 300.062 1788.9 300.295C1789.51 302.949 1789.83 305.556 1789.83 308.023C1789.83 310.491 1789.74 313.005 1789.51 315.472V315.426Z" fill="white"/>
<path d="M1839.54 317.753C1827.24 317.753 1818.11 314.308 1812.05 307.418C1806 300.528 1803.02 290.658 1803.02 277.902C1803.02 250.061 1815.41 236.187 1840.14 236.187C1844.15 236.187 1848.29 236.793 1852.58 237.957C1856.86 239.12 1860.26 240.424 1862.69 241.867C1862.36 251.365 1861.38 258.115 1859.75 262.119C1857.89 262.631 1856.44 262.911 1855.28 262.911H1852.67C1852.16 262.911 1851.55 262.864 1850.81 262.771L1846.99 245.918C1843.64 245.592 1841.68 245.452 1841.17 245.452C1833.81 245.452 1827.94 247.687 1823.6 252.203C1819.27 256.719 1817.08 264.261 1817.08 274.922C1817.08 285.583 1818.76 293.637 1822.07 299.178C1825.37 304.718 1831.8 307.465 1841.35 307.465C1845.87 307.465 1852.9 305.323 1862.55 301.04C1864.5 303.693 1865.53 306.068 1865.62 308.116C1860.4 311.189 1855.28 313.61 1850.3 315.332C1845.27 317.055 1841.68 317.94 1839.54 317.94V317.753Z" fill="white"/>
<path d="M1875.45 277.529C1875.45 264.54 1878.43 254.391 1884.35 247.082C1890.26 239.772 1899.44 236.094 1911.83 236.094C1924.22 236.094 1933.17 239.446 1938.71 246.15C1944.25 252.854 1947 262.724 1947 275.853C1947 288.982 1944.07 299.224 1938.2 306.673C1932.33 314.122 1923.38 317.893 1911.41 317.893C1899.44 317.893 1890.45 314.401 1884.49 307.464C1878.48 300.528 1875.5 290.518 1875.5 277.529H1875.45ZM1910.99 308.535C1919.52 308.535 1925.34 305.835 1928.32 300.481C1931.35 295.127 1932.84 287.445 1932.84 277.529C1932.84 261.793 1929.35 251.923 1922.4 247.92C1919.52 246.29 1915.51 245.452 1910.34 245.452C1905.17 245.452 1900.28 246.523 1895.67 248.664C1891.57 256.532 1889.52 265.704 1889.52 276.132C1889.52 286.561 1890.87 293.87 1893.52 299.317C1896.6 305.463 1902.42 308.535 1910.95 308.535H1910.99Z" fill="white"/>
<path fill-rule="evenodd" clip-rule="evenodd" d="M154.427 1.20252C152.54 1.8456 150.242 2.83658 149.309 3.40587C143.163 7.21206 141.268 17.0152 140.47 23.4258C139.885 28.0908 139.747 31.3115 140.037 33.5095C140.375 36.0819 140.296 36.9253 139.668 37.6316C137.63 39.9151 132.59 39.8508 129.917 40.225C115.296 42.2985 101.149 47.9594 88.0125 54.5152C83.2832 56.8844 78.2543 59.2871 73.9125 62.3481C72.5368 63.318 70.8764 64.2668 70.2228 64.4566C69.1218 64.7762 68.7609 65.7447 67.7349 66.2541C59.8531 70.1667 52.9228 78.2393 46.8986 84.292C42.4077 88.8041 38.1329 93.2846 37.4107 94.244C31.8647 101.612 26.304 108.919 21.4923 116.805C18.103 122.438 15.5738 128.661 12.5895 134.516C11.8034 136.058 11.521 137.695 10.8132 139.26C5.15033 151.931 2.22192 166.791 0.808809 180.507C-2.35153 210.825 3.90351 240.291 16.8801 267.481C17.4283 268.641 17.8763 269.943 17.8711 270.38C17.8555 271.671 19.552 272.251 19.5209 273.543C19.5156 273.98 20.4855 276.352 21.682 278.814C22.8733 281.276 24.7761 285.192 25.9041 287.511C26.8276 289.41 27.3041 292.664 29.2407 293.837C31.7611 295.353 40.9925 269.813 43.9732 264.845C46.8755 260.044 49.2101 254.782 53.3555 250.866C56.7817 247.645 61.5515 246.657 66.1378 246.048C80.1107 244.167 95.3064 244.698 109.36 245.869C108.81 240.31 105.465 234.989 103.272 229.924C98.6933 219.348 94.7152 208.897 94.6698 197.111C94.6504 189.633 95.7839 182.347 98.1328 175.236C101.914 163.788 109.784 153.084 119.206 145.717C122.178 143.395 125.043 141.014 128.467 139.407C129.775 138.794 130.679 137.78 132.089 137.399C139.575 135.314 146.359 132.836 154.164 131.701C156.193 131.406 158.149 131.3 158.512 131.458C158.876 131.617 159.646 132.818 160.225 134.12C164.846 144.538 169.416 154.761 176.961 163.428C178.626 165.342 180.487 167.239 181.093 167.645C185.557 170.634 190.28 173.021 195.805 173.037C202.808 173.057 208.173 169.085 212.893 164.43C227.562 149.963 233.826 131.521 243.27 113.695C244.011 112.297 244.138 110.75 244.878 109.346C248.636 102.298 249.997 94.0518 253.232 86.8116C256.705 78.9426 255.569 68.2973 250.76 61.2464C246.572 55.1045 240.381 50.6732 235.026 45.6385C222.369 33.7096 208.726 22.9911 194.223 13.4106C185.95 7.89478 176.289 3.09558 166.551 1.02857C163.794 0.44347 160.71 -0.0203934 159.698 0.000691327C158.686 0.021776 156.314 0.564707 154.427 1.20252ZM260.87 35.054C260.886 35.4704 263.369 38.3643 266.384 41.4795C273.279 48.6039 280.366 56.4578 285.438 65.068C289.783 72.4179 285.272 85.1683 281.659 92.3464C280.013 95.6165 279.248 99.4041 277.7 102.757C276.156 106.089 274.409 109.383 272.999 112.772C272.432 114.121 264.859 127.591 266.03 128.707C266.257 128.918 269.045 129.218 272.234 129.376C283.368 129.928 294.373 131.837 305.442 133.061C308.921 133.446 312.363 133.989 313.085 134.268C316.092 135.445 319.561 134.911 322.573 136.076C327.852 138.065 333.995 137.758 339.044 140.467C339.84 140.889 340.789 141.226 341.153 141.221C343.582 141.15 347.27 144.62 349.455 145.633C355.114 148.256 359.846 152.949 363.212 158.104C364.63 160.281 365.79 162.411 365.79 162.848C365.79 163.286 366.143 164.171 366.58 164.825C372.409 173.534 365.875 187.354 363.655 196.057C362.945 198.898 361.822 202.46 360.45 205.018C357.904 209.765 356.622 215.261 354.431 220.172C353.208 222.912 351.866 225.679 350.483 228.343C348.281 232.581 346.948 237.882 343.91 241.652C342.645 243.223 342.624 243.228 339.856 242.606C335.822 241.705 331.83 240.615 327.844 239.523C316.644 236.492 303.519 236.417 293.239 242.079C270.756 254.655 293.738 298.683 301.594 314.394C306.802 324.835 312.288 335.001 318.756 344.704C322.629 350.496 327.808 356.378 334.696 358.398C346.599 361.889 360.258 358.019 372.12 356.111C386.512 353.767 401.337 350.797 415.079 345.8C418.194 344.677 421.637 343.975 424.567 342.395C425.436 341.931 426.564 341.546 427.07 341.546C428.21 341.534 429.227 340.153 430.233 339.675C436.659 336.623 443.773 332.035 447.348 325.727C449.33 322.231 449.662 318.033 449.035 314.131C447.459 304.406 437.776 296.163 430.497 290.532C428.541 289.014 426.939 287.538 426.939 287.248C426.939 286.958 427.329 285.951 427.803 285.008C433.431 273.938 438.398 262.616 443.495 251.272C444.249 249.606 444.865 247.946 444.876 247.582C444.915 246.251 446.463 245.395 446.447 244.024C446.436 243.587 446.863 242.401 447.385 241.389C449.751 236.846 451.191 231.194 452.703 226.366C454.476 220.682 455.978 214.919 457.742 209.235C461.976 195.829 462.966 180.626 462.998 166.802C463.024 155.756 462.883 145.129 459.582 134.516C458.916 132.353 458.726 130.006 457.832 127.927C455.649 122.786 453.972 117.464 451.359 112.509C444.375 99.2618 434.057 87.3202 422.195 78.2407C420.308 76.7964 418.653 75.4891 418.505 75.3363C415.993 72.8244 412.203 71.6857 409.676 69.1585C408.819 68.3018 407.525 68.5838 406.645 67.7036C405.234 66.2928 403.066 65.5617 401.374 64.562C400.215 63.882 397.131 62.2532 394.522 60.946C391.852 59.6083 388.561 58.7733 386.088 57.0875C384.797 56.1955 383.171 56.5388 381.871 55.6643C380.002 54.3899 377.465 54.0891 375.414 53.1605C370.149 50.7976 364.014 49.0756 358.415 47.6995C348.743 45.2948 260.714 31.2748 260.87 35.054ZM86.9583 273.379C82.3756 273.712 76.6075 274.248 72.463 276.358C68.442 278.387 64.5146 281.201 61.8682 284.897C57.841 290.605 55.7585 298.137 53.3029 304.643C52.7072 306.235 52.0536 308.254 51.848 309.123C51.3673 311.157 50.1361 312.834 49.766 314.922C48.5839 321.766 45.2227 328.454 43.504 335.216C41.9984 341.139 40.4014 347.137 39.245 353.138C36.5579 367.081 32.6867 412.912 62.1845 403.693C65.8431 402.569 69.6333 401.97 73.2536 400.699C76.9162 399.402 80.3116 397.569 83.7957 395.86C85.9313 394.813 89.5918 391.697 92.2293 392.313C92.9567 392.487 94.2586 393.546 95.1283 394.68C99.0447 399.759 103.504 404.409 107.7 409.254C121.217 424.922 135.646 440.28 152.714 452.104C162.539 458.91 173.938 463.976 185.263 467.764C193.321 470.46 201.952 471.956 210.3 473.415C213.041 473.895 218.533 474.064 228.221 473.979C237.452 473.892 246.833 473.758 255.894 471.781C262.864 470.286 269.676 467.859 276.451 465.667C293.779 459.996 309.557 448.887 322.836 436.654C329.785 430.267 335.874 422.846 341.564 415.337C347.994 406.832 354.534 398.421 360.893 389.857C362.033 388.316 365.795 385.105 365.795 382.92C365.795 381.417 351.764 383.674 350.245 383.789C340.301 384.562 329.871 385.434 319.937 384.216C316.89 383.847 313.401 383.167 312.178 382.704C308.664 381.386 305.861 378.026 303.824 375.013C297.215 365.294 291.649 355.144 286.74 344.44C286.301 343.487 283.534 335.171 281.195 339.211C280.905 339.707 279.303 341.857 277.637 343.992C269.369 354.563 261.284 368.492 249.042 374.902C245.448 376.771 241.558 378.027 237.709 379.251C235.343 380.005 233.603 380.126 228.221 379.899C224.6 379.746 219.972 379.219 217.943 378.729C212.169 377.319 206.297 374.317 201.692 370.532C201.16 370.095 196.674 365.709 191.725 360.781C186.77 355.852 179.971 348.647 176.613 344.767C173.25 340.882 170.325 337.625 170.109 337.519C167.939 336.408 180.23 322.203 181.694 319.529C183.504 316.169 185.29 312.787 186.412 309.123C187.779 304.615 188.085 298.344 186.127 293.969C184.439 290.235 180.836 286.672 177.488 284.38C175.341 282.911 172.826 282.105 170.504 280.938C152.749 272.02 128.883 273.08 109.887 273.142C98.5808 273.174 88.2655 273.279 86.9583 273.379Z" fill="white" fill-opacity="0.6"/>
<path d="M171.57 220.848C172.04 226.128 176.228 241.263 183.072 257.662C189.917 274.06 208.688 303.511 212.266 307.193C215.845 310.874 218.271 312.882 224.269 308.532C230.267 304.183 257.369 268.371 264.304 251.303C271.851 232.728 289.989 192.403 261.635 183.032C244.087 177.232 231.28 197.422 228.611 205.454C225.943 213.486 225.263 219.508 224.269 220.848C223.274 222.188 221.273 221.519 220.939 220.848C220.781 220.53 219.385 209.607 214.935 201.104C210.019 191.711 201.597 184.709 191.918 185.709C169.235 188.051 170.27 206.236 171.57 220.848Z" fill="white"/>
</svg>
