<svg width="1947" height="474" viewBox="0 0 1947 474" fill="none" xmlns="http://www.w3.org/2000/svg">
<path d="M597.292 160.13C616.763 160.13 631.25 163.303 640.706 169.695C650.162 176.086 654.867 187.331 654.867 203.474C654.867 219.617 650.162 232.401 640.799 241.872C631.436 251.344 616.297 256.056 595.429 256.056H576.097L575.399 306.118L593.379 307.751C593.379 312.044 592.075 316.663 589.466 321.608H537.667L536.969 313.77C543.397 311.297 550.012 309.478 556.766 308.218C555.834 248.264 555.089 203.661 554.483 174.454C550.338 173.707 543.583 171.841 534.22 168.901L535.385 160.13H597.339H597.292ZM623.285 231.048C630.179 224.516 633.626 215.885 633.626 205.107C633.626 194.329 630.225 186.864 623.518 182.618C616.763 178.373 605.956 176.273 591.05 176.273C588.302 176.273 583.597 176.366 577.029 176.506C577.029 176.646 576.796 198.248 576.33 241.312L593.146 241.079C606.329 240.939 616.391 237.58 623.285 231.048Z" fill="black"/>
<path d="M667.77 263.941C667.77 244.438 672.242 229.135 681.139 218.171C690.036 207.16 703.778 201.701 722.364 201.701C740.95 201.701 754.366 206.74 762.658 216.818C770.949 226.895 775.095 241.779 775.095 261.421C775.095 281.064 770.67 296.554 761.866 307.798C753.015 319.042 739.646 324.641 721.665 324.641C703.685 324.641 690.223 319.415 681.279 308.964C672.289 298.513 667.817 283.537 667.817 263.987L667.77 263.941ZM721.06 310.504C733.87 310.504 742.534 306.492 747.053 298.42C751.571 290.348 753.854 278.871 753.854 263.941C753.854 240.286 748.636 225.449 738.202 219.43C733.917 216.958 727.861 215.745 720.128 215.745C712.396 215.745 705.036 217.378 698.142 220.597C691.993 232.448 688.919 246.211 688.919 261.888C688.919 277.564 690.922 288.575 694.928 296.694C699.539 305.932 708.25 310.504 721.06 310.504Z" fill="black"/>
<path d="M810.73 306.818C816.087 309.104 822.655 310.271 830.434 310.271C838.213 310.271 844.269 308.824 848.741 305.885C853.213 302.992 855.402 298.98 855.402 293.894C855.402 288.809 853.306 284.61 849.206 281.204C845.061 277.844 839.983 274.812 834.021 272.199C828.012 269.586 822.049 266.834 816.04 263.894C810.031 261.001 805 257.129 800.855 252.37C796.709 247.611 794.659 242.059 794.659 235.76C794.659 225.169 798.199 216.818 805.233 210.752C812.314 204.687 822.096 201.654 834.58 201.654C847.064 201.654 858.849 204.5 869.935 210.192C870.075 211.732 870.168 215.838 870.168 222.51C870.168 229.182 869.47 234.92 868.072 239.679C864.392 240.892 860.013 241.499 854.936 241.499L847.343 217.984C843.943 216.304 839.378 215.465 833.648 215.465C827.919 215.465 823.307 216.958 819.953 219.944C816.553 222.93 814.876 226.709 814.876 231.235C814.876 235.76 816.972 239.726 821.211 243.132C825.45 246.538 830.527 249.571 836.536 252.23C842.545 254.936 848.508 257.782 854.517 260.768C860.526 263.754 865.603 267.673 869.842 272.526C874.081 277.378 876.177 282.93 876.177 289.229C876.177 300.286 871.938 308.964 863.414 315.17C854.889 321.375 844.409 324.501 831.971 324.501C825.217 324.501 817.997 323.381 810.311 321.142C802.625 318.902 796.196 316.056 790.979 312.51C790.979 302.199 791.911 293.055 793.728 285.076C797.268 284.47 802.019 284.143 807.982 284.143L810.73 306.725V306.818Z" fill="black"/>
<path d="M912.744 307.285L910.881 220.364H893.133L892.434 212.292C893.972 211.219 898.443 209.213 905.803 206.273L924.669 176.74C927.743 177.066 930.119 177.813 931.796 179.073L931.563 204.454C943.069 204.454 952.525 205.247 959.885 206.787C959.885 210.939 958.581 215.465 955.972 220.41H931.097C930.771 238.84 930.492 266.833 930.166 304.345C938.783 304.812 947.354 306.352 955.972 308.964L955.739 317.036C953.596 318.436 948.1 320.022 939.296 321.888C930.445 323.754 923.225 324.641 917.542 324.641C916.75 323.428 915.772 320.768 914.561 316.663C913.35 312.604 912.697 309.478 912.697 307.331L912.744 307.285Z" fill="black"/>
<path d="M1039.82 324.594C1019.23 324.594 1002.83 317.503 990.536 303.366C978.238 289.229 972.089 268.28 972.089 240.519C972.089 212.759 977.4 191.95 988.113 177.999C998.781 164.096 1015.46 157.144 1038.1 157.144C1060.73 157.144 1079.79 162.836 1095.3 174.22C1095.3 182.059 1094.23 191.343 1092.08 202.121C1088.68 202.727 1084.26 203.054 1078.72 203.054L1073.64 179.306C1064.88 176.413 1054.12 174.92 1041.4 174.92C1032.97 174.92 1021.37 177.206 1006.65 181.825C1005.72 183.505 1004.56 185.884 1003.21 188.87C1001.81 191.856 1000.04 198.155 997.802 207.766C995.567 217.378 994.449 227.035 994.449 236.693C994.449 283.91 1009.73 307.471 1040.29 307.471C1056.4 307.471 1068.84 304.579 1077.6 298.7C1078.2 279.337 1078.58 264.781 1078.76 255.123L1056.45 249.571L1057.15 241.499H1110.11C1112.72 246.445 1114.02 251.017 1114.02 255.356C1108.02 256.289 1101.59 256.896 1094.69 257.222C1095.62 283.07 1096.09 300.893 1096.09 310.737C1092.27 313.35 1084.63 316.336 1073.17 319.602C1061.71 322.868 1050.63 324.548 1039.91 324.548L1039.82 324.594Z" fill="black"/>
<path d="M1192.23 219.85C1189.63 219.85 1185.76 220.783 1180.59 222.603C1175.47 224.469 1170.81 226.616 1166.66 229.042C1165.73 263.194 1165.12 288.762 1164.8 305.838L1184.13 307.705C1184.13 311.997 1182.83 316.616 1180.22 321.562H1127.25L1126.55 313.49C1133.64 311.017 1140.53 309.198 1147.28 307.938C1146.35 268.886 1145.61 240.006 1144.95 221.203C1136.52 220.737 1129.77 219.804 1124.69 218.451L1125.62 206.46C1133.77 204.174 1145.79 203.007 1161.77 203.007C1164.24 206.833 1165.78 211.779 1166.38 217.751C1184.04 206.973 1194.56 201.608 1197.92 201.608C1201.27 201.608 1205.18 202.261 1209.66 203.567C1214.13 204.874 1217.39 206.32 1219.58 207.86C1219.58 223.21 1218.13 235.76 1215.2 245.465C1213.06 246.071 1210.54 246.398 1207.7 246.398C1204.86 246.398 1202.9 246.305 1201.83 246.165L1197.22 221.017C1196.43 220.224 1194.75 219.85 1192.14 219.85H1192.23Z" fill="black"/>
<path d="M1230.01 263.941C1230.01 244.438 1234.48 229.135 1243.38 218.171C1252.28 207.16 1266.02 201.701 1284.61 201.701C1303.19 201.701 1316.61 206.74 1324.9 216.818C1333.19 226.895 1337.34 241.779 1337.34 261.421C1337.34 281.064 1332.91 296.554 1324.11 307.798C1315.26 319.042 1301.89 324.641 1283.91 324.641C1265.93 324.641 1252.47 319.415 1243.52 308.964C1234.53 298.513 1230.06 283.537 1230.06 263.987L1230.01 263.941ZM1283.3 310.504C1296.11 310.504 1304.78 306.492 1309.3 298.42C1313.81 290.348 1316.1 278.871 1316.1 263.941C1316.1 240.286 1310.88 225.449 1300.44 219.43C1296.16 216.958 1290.1 215.745 1282.37 215.745C1274.64 215.745 1267.28 217.378 1260.38 220.597C1254.24 232.448 1251.16 246.211 1251.16 261.888C1251.16 277.564 1253.16 288.575 1257.17 296.694C1261.78 305.932 1270.49 310.504 1283.3 310.504Z" fill="black"/>
<path d="M1444.15 230.955H1443.22L1416.99 321.608H1394.21L1362.68 220.13L1343.35 218.264C1343.35 213.972 1344.65 209.353 1347.26 204.407H1400.22L1400.92 212.479C1395.98 214.625 1390.58 216.304 1384.57 217.564L1400.92 280.504L1405.07 300.799H1407.35L1411.96 280.271L1435.21 204.407C1437.07 204.267 1438.37 204.174 1439.12 204.174L1455 204.64L1479.64 280.504L1484.72 300.799H1486.77L1490.45 280.271L1509.78 217.518L1490.45 212.432L1491.15 204.36H1542.95C1545.56 209.306 1546.86 213.878 1546.86 218.217C1540.57 219.011 1534.29 219.524 1528 219.85L1496.46 321.562H1473.68L1444.2 230.908L1444.15 230.955Z" fill="black"/>
<path d="M1568.71 307.285L1566.85 220.364H1549.1L1548.4 212.292C1549.94 211.219 1554.41 209.213 1561.77 206.273L1580.63 176.74C1583.71 177.066 1586.08 177.813 1587.76 179.073L1587.53 204.454C1599.03 204.454 1608.49 205.247 1615.85 206.787C1615.85 210.939 1614.55 215.465 1611.94 220.41H1587.06C1586.74 238.84 1586.46 266.833 1586.13 304.345C1594.75 304.812 1603.32 306.352 1611.94 308.964L1611.7 317.036C1609.56 318.436 1604.06 320.022 1595.26 321.888C1586.41 323.754 1579.19 324.641 1573.51 324.641C1572.72 323.428 1571.74 320.768 1570.53 316.663C1569.31 312.604 1568.66 309.478 1568.66 307.331L1568.71 307.285Z" fill="black"/>
<path d="M1664.02 150.239C1668.77 150.239 1672.17 150.379 1674.12 150.705C1674.12 153.458 1673.7 157.051 1672.87 161.436C1672.03 165.822 1671.47 168.388 1671.14 169.181C1671.14 172.587 1671 179.539 1670.68 190.177C1670.35 200.768 1670.21 209.026 1670.21 214.858C1676.83 211.312 1683.39 208.233 1689.92 205.62C1696.44 203.007 1700.54 201.701 1702.21 201.701C1716.93 201.701 1727.6 205.34 1734.21 212.665C1740.83 219.99 1744.14 231.095 1744.14 245.978C1744.14 250.27 1743.53 270.286 1742.27 305.932L1761.6 307.798C1761.6 312.09 1760.3 316.709 1757.69 321.655H1704.73L1704.03 313.583C1711.11 311.111 1718 309.291 1724.76 308.031C1723.83 267.767 1723.03 245.325 1722.34 240.799C1721.64 236.273 1720.52 232.308 1718.98 228.948C1717.44 225.589 1715.16 223.163 1712.09 221.81C1709.01 220.41 1704.96 219.71 1699.88 219.71C1689.45 219.71 1679.48 222.183 1669.93 227.082L1668.53 305.932L1687.87 307.798C1687.87 312.09 1686.56 316.709 1683.95 321.655H1630.99L1630.29 313.583C1637.37 311.111 1644.26 309.291 1651.02 308.031L1648.27 168.481C1639.84 168.015 1633.08 167.082 1628.01 165.729L1628.94 153.738C1636.77 151.452 1648.41 150.285 1663.92 150.285L1664.02 150.239Z" fill="black"/>
<path d="M1789.51 321.095C1786.85 321.702 1784.24 322.028 1781.77 322.028C1779.31 322.028 1776.79 321.888 1774.32 321.562C1773.72 318.669 1773.39 315.776 1773.39 312.883C1773.39 309.991 1773.48 307.798 1773.72 306.352C1775.95 305.838 1778.33 305.605 1780.84 305.605C1783.36 305.605 1786.06 305.698 1788.9 305.932C1789.51 308.591 1789.83 311.204 1789.83 313.677C1789.83 316.149 1789.74 318.669 1789.51 321.142V321.095Z" fill="black"/>
<path d="M1839.54 323.428C1827.24 323.428 1818.11 319.975 1812.05 313.07C1806 306.165 1803.02 296.274 1803.02 283.49C1803.02 255.589 1815.41 241.686 1840.14 241.686C1844.15 241.686 1848.29 242.292 1852.58 243.459C1856.86 244.625 1860.26 245.931 1862.69 247.378C1862.36 256.896 1861.38 263.661 1859.75 267.673C1857.89 268.187 1856.45 268.466 1855.28 268.466H1852.67C1852.16 268.466 1851.55 268.42 1850.81 268.327L1846.99 251.437C1843.63 251.11 1841.68 250.97 1841.17 250.97C1833.81 250.97 1827.94 253.21 1823.6 257.735C1819.27 262.261 1817.08 269.819 1817.08 280.504C1817.08 291.188 1818.76 299.26 1822.07 304.812C1825.37 310.364 1831.8 313.117 1841.35 313.117C1845.87 313.117 1852.9 310.971 1862.55 306.678C1864.5 309.338 1865.53 311.717 1865.62 313.77C1860.4 316.849 1855.28 319.275 1850.3 321.002C1845.27 322.728 1841.68 323.615 1839.54 323.615V323.428Z" fill="black"/>
<path d="M1875.45 283.117C1875.45 270.099 1878.43 259.928 1884.35 252.603C1890.26 245.278 1899.44 241.592 1911.83 241.592C1924.22 241.592 1933.17 244.952 1938.71 251.67C1944.25 258.389 1947 268.28 1947 281.437C1947 294.594 1944.07 304.859 1938.2 312.324C1932.33 319.789 1923.38 323.568 1911.41 323.568C1899.44 323.568 1890.45 320.069 1884.49 313.117C1878.48 306.165 1875.5 296.134 1875.5 283.117H1875.45ZM1910.99 314.19C1919.52 314.19 1925.34 311.484 1928.32 306.118C1931.35 300.753 1932.84 293.054 1932.84 283.117C1932.84 267.347 1929.35 257.456 1922.4 253.443C1919.52 251.81 1915.51 250.97 1910.34 250.97C1905.17 250.97 1900.28 252.043 1895.67 254.19C1891.57 262.075 1889.52 271.266 1889.52 281.717C1889.52 292.168 1890.87 299.493 1893.52 304.952C1896.6 311.111 1902.42 314.19 1910.95 314.19H1910.99Z" fill="black"/>
<path fill-rule="evenodd" clip-rule="evenodd" d="M154.427 1.20252C152.54 1.8456 150.242 2.83658 149.309 3.40587C143.163 7.21206 141.268 17.0152 140.47 23.4258C139.885 28.0908 139.747 31.3115 140.037 33.5095C140.375 36.0819 140.296 36.9253 139.668 37.6316C137.63 39.9151 132.59 39.8508 129.917 40.225C115.296 42.2985 101.149 47.9594 88.0125 54.5152C83.2832 56.8844 78.2543 59.2871 73.9125 62.3481C72.5368 63.318 70.8764 64.2668 70.2228 64.4566C69.1218 64.7762 68.7609 65.7447 67.7349 66.2541C59.8531 70.1667 52.9228 78.2393 46.8986 84.292C42.4077 88.8041 38.1329 93.2846 37.4107 94.244C31.8647 101.612 26.304 108.919 21.4923 116.805C18.103 122.438 15.5738 128.661 12.5895 134.516C11.8034 136.058 11.521 137.695 10.8132 139.26C5.15033 151.931 2.22192 166.791 0.808809 180.507C-2.35153 210.825 3.90351 240.291 16.8801 267.481C17.4283 268.641 17.8763 269.943 17.8711 270.38C17.8555 271.671 19.552 272.251 19.5209 273.543C19.5156 273.98 20.4855 276.352 21.682 278.814C22.8733 281.276 24.7761 285.192 25.9041 287.511C26.8276 289.41 27.3041 292.664 29.2407 293.837C31.7611 295.353 40.9925 269.813 43.9732 264.845C46.8755 260.044 49.2101 254.782 53.3555 250.866C56.7817 247.645 61.5515 246.657 66.1378 246.048C80.1107 244.167 95.3064 244.698 109.36 245.869C108.81 240.31 105.465 234.989 103.272 229.924C98.6933 219.348 94.7152 208.897 94.6698 197.111C94.6504 189.633 95.7839 182.347 98.1328 175.236C101.914 163.788 109.784 153.084 119.206 145.717C122.178 143.395 125.043 141.014 128.467 139.407C129.775 138.794 130.679 137.78 132.089 137.399C139.575 135.314 146.359 132.836 154.164 131.701C156.193 131.406 158.149 131.3 158.512 131.458C158.876 131.617 159.646 132.818 160.225 134.12C164.846 144.538 169.416 154.761 176.961 163.428C178.626 165.342 180.487 167.239 181.093 167.645C185.557 170.634 190.28 173.021 195.805 173.037C202.808 173.057 208.173 169.085 212.893 164.43C227.562 149.963 233.826 131.521 243.27 113.695C244.011 112.297 244.138 110.75 244.878 109.346C248.636 102.298 249.997 94.0518 253.232 86.8116C256.705 78.9426 255.569 68.2973 250.76 61.2464C246.572 55.1045 240.381 50.6732 235.026 45.6385C222.369 33.7096 208.726 22.9911 194.223 13.4106C185.95 7.89478 176.289 3.09558 166.551 1.02857C163.794 0.44347 160.71 -0.0203934 159.698 0.000691327C158.686 0.021776 156.314 0.564707 154.427 1.20252ZM260.87 35.054C260.886 35.4704 263.369 38.3643 266.384 41.4795C273.279 48.6039 280.366 56.4578 285.438 65.068C289.783 72.4179 285.272 85.1683 281.659 92.3464C280.013 95.6165 279.248 99.4041 277.7 102.757C276.156 106.089 274.409 109.383 272.999 112.772C272.432 114.121 264.859 127.591 266.03 128.707C266.257 128.918 269.045 129.218 272.234 129.376C283.368 129.928 294.373 131.837 305.442 133.061C308.921 133.446 312.363 133.989 313.085 134.268C316.092 135.445 319.561 134.911 322.573 136.076C327.852 138.065 333.995 137.758 339.044 140.467C339.84 140.889 340.789 141.226 341.153 141.221C343.582 141.15 347.27 144.62 349.455 145.633C355.114 148.256 359.846 152.949 363.212 158.104C364.63 160.281 365.79 162.411 365.79 162.848C365.79 163.286 366.143 164.171 366.58 164.825C372.409 173.534 365.875 187.354 363.655 196.057C362.945 198.898 361.822 202.46 360.45 205.018C357.904 209.765 356.622 215.261 354.431 220.172C353.208 222.912 351.866 225.679 350.483 228.343C348.281 232.581 346.948 237.882 343.91 241.652C342.645 243.223 342.624 243.228 339.856 242.606C335.822 241.705 331.83 240.615 327.844 239.523C316.644 236.492 303.519 236.417 293.239 242.079C270.756 254.655 293.738 298.683 301.594 314.394C306.802 324.835 312.288 335.001 318.756 344.704C322.629 350.496 327.808 356.378 334.696 358.398C346.599 361.889 360.258 358.019 372.12 356.111C386.512 353.767 401.337 350.797 415.079 345.8C418.194 344.677 421.637 343.975 424.567 342.395C425.436 341.931 426.564 341.546 427.07 341.546C428.21 341.534 429.227 340.153 430.233 339.675C436.659 336.623 443.773 332.035 447.348 325.727C449.33 322.231 449.662 318.033 449.035 314.131C447.459 304.406 437.776 296.163 430.497 290.532C428.541 289.014 426.939 287.538 426.939 287.248C426.939 286.958 427.329 285.951 427.803 285.008C433.431 273.938 438.398 262.616 443.495 251.272C444.249 249.606 444.865 247.946 444.876 247.582C444.915 246.251 446.463 245.395 446.447 244.024C446.436 243.587 446.863 242.401 447.385 241.389C449.751 236.846 451.191 231.194 452.703 226.366C454.476 220.682 455.978 214.919 457.742 209.235C461.976 195.829 462.966 180.626 462.998 166.802C463.024 155.756 462.883 145.129 459.582 134.516C458.916 132.353 458.726 130.006 457.832 127.927C455.649 122.786 453.972 117.464 451.359 112.509C444.375 99.2618 434.057 87.3202 422.195 78.2407C420.308 76.7964 418.653 75.4891 418.505 75.3363C415.993 72.8244 412.203 71.6857 409.676 69.1585C408.819 68.3018 407.525 68.5838 406.645 67.7036C405.234 66.2928 403.066 65.5617 401.374 64.562C400.215 63.882 397.131 62.2532 394.522 60.946C391.852 59.6083 388.561 58.7733 386.088 57.0875C384.797 56.1955 383.171 56.5388 381.871 55.6643C380.002 54.3899 377.465 54.0891 375.414 53.1605C370.149 50.7976 364.014 49.0756 358.415 47.6995C348.743 45.2948 260.714 31.2748 260.87 35.054ZM86.9583 273.379C82.3756 273.712 76.6075 274.248 72.463 276.358C68.442 278.387 64.5146 281.201 61.8682 284.897C57.841 290.605 55.7585 298.137 53.3029 304.643C52.7072 306.235 52.0536 308.254 51.848 309.123C51.3673 311.157 50.1361 312.834 49.766 314.922C48.5839 321.766 45.2227 328.454 43.504 335.216C41.9984 341.139 40.4014 347.137 39.245 353.138C36.5579 367.081 32.6867 412.912 62.1845 403.693C65.8431 402.569 69.6333 401.97 73.2536 400.699C76.9162 399.402 80.3116 397.569 83.7957 395.86C85.9313 394.813 89.5918 391.697 92.2293 392.313C92.9567 392.487 94.2586 393.546 95.1283 394.68C99.0447 399.759 103.504 404.409 107.7 409.254C121.217 424.922 135.646 440.28 152.714 452.104C162.539 458.91 173.938 463.976 185.263 467.764C193.321 470.46 201.952 471.956 210.3 473.415C213.041 473.895 218.533 474.064 228.221 473.979C237.452 473.892 246.833 473.758 255.894 471.781C262.864 470.286 269.676 467.859 276.451 465.667C293.779 459.996 309.557 448.887 322.836 436.654C329.785 430.267 335.874 422.846 341.564 415.337C347.994 406.832 354.534 398.421 360.893 389.857C362.033 388.316 365.795 385.105 365.795 382.92C365.795 381.417 351.764 383.674 350.245 383.789C340.301 384.562 329.871 385.434 319.937 384.216C316.89 383.847 313.401 383.167 312.178 382.704C308.664 381.386 305.861 378.026 303.824 375.013C297.215 365.294 291.649 355.144 286.74 344.44C286.301 343.487 283.534 335.171 281.195 339.211C280.905 339.707 279.303 341.857 277.637 343.992C269.369 354.563 261.284 368.492 249.042 374.902C245.448 376.771 241.558 378.027 237.709 379.251C235.343 380.005 233.603 380.126 228.221 379.899C224.6 379.746 219.972 379.219 217.943 378.729C212.169 377.319 206.297 374.317 201.692 370.532C201.16 370.095 196.674 365.709 191.725 360.781C186.77 355.852 179.971 348.647 176.613 344.767C173.25 340.882 170.325 337.625 170.109 337.519C167.939 336.408 180.23 322.203 181.694 319.529C183.504 316.169 185.29 312.787 186.412 309.123C187.779 304.615 188.085 298.344 186.127 293.969C184.439 290.235 180.836 286.672 177.488 284.38C175.341 282.911 172.826 282.105 170.504 280.938C152.749 272.02 128.883 273.08 109.887 273.142C98.5808 273.174 88.2655 273.279 86.9583 273.379Z" fill="#70B264"/>
<path d="M171.57 220.848C172.04 226.128 176.228 241.263 183.072 257.662C189.917 274.06 208.688 303.511 212.266 307.193C215.845 310.874 218.271 312.882 224.269 308.532C230.267 304.183 257.369 268.371 264.304 251.303C271.851 232.728 289.989 192.403 261.635 183.032C244.087 177.232 231.28 197.422 228.611 205.454C225.943 213.486 225.263 219.508 224.269 220.848C223.274 222.188 221.273 221.519 220.939 220.848C220.781 220.53 219.385 209.607 214.935 201.104C210.019 191.711 201.597 184.709 191.918 185.709C169.235 188.051 170.27 206.236 171.57 220.848Z" fill="#114B07"/>
</svg>
